<svg width="679" height="946" viewBox="0 0 679 946" fill="none" xmlns="http://www.w3.org/2000/svg">
<path d="M641.923 817.677C640.47 819.515 638.92 821.085 637.252 822.467C628.584 827.052 624.873 817.882 624.873 817.882L640.336 657.474L646.44 661.62L660.756 671.324C660.765 671.324 669.72 783.005 641.923 817.677Z" fill="#F2F2F2" stroke="#371A45" stroke-width="5" stroke-miterlimit="10"/>
<path d="M638.185 816.782C637.45 817.191 636.76 817.473 636.114 817.662C660.254 785.031 653.074 678.611 653.074 678.611L640.776 669.173L641.645 659.751L659.188 673.24C659.197 673.24 667.13 791.076 638.185 816.782Z" fill="#CDC6D0"/>
<path d="M656.121 758.461C655.691 771.62 653.979 786.161 649.183 784.999C639.843 782.707 631.291 782.707 631.291 775.844C631.291 768.982 634.16 734.278 634.16 734.278H634.24C633.478 744.36 632.645 756.105 632.645 759.811C632.645 766.674 641.205 766.674 650.537 768.966C653.325 769.657 655.073 765.025 656.121 758.461Z" fill="#CDC6D0"/>
<path d="M662.854 763.031C661.303 769.594 658.721 774.227 654.616 773.536C640.838 771.243 628.217 771.243 628.217 764.381C628.217 760.675 629.445 748.929 630.565 738.848C631.551 730.211 632.448 722.815 632.448 722.815H637.235C637.235 722.815 662.648 736.901 663.795 727.746C664.602 721.323 666.538 747.579 662.854 763.031Z" fill="#F2F2F2" stroke="#371A45" stroke-width="5" stroke-miterlimit="10"/>
<path d="M664.96 744.328C664.96 744.328 661.437 749.793 656.166 744.328H664.96Z" fill="#E6E6E6"/>
<path d="M666.439 747.265C664.718 749.133 662.459 749.479 660.549 748.709C658.828 747.971 657.412 746.385 656.166 744.328C656.56 744.501 656.937 744.689 657.322 744.831C659.528 745.616 662.208 744.862 663.499 741.423C663.337 741.125 666.466 747.312 666.439 747.265Z" fill="#371A45"/>
<path d="M658.721 687.75C657.879 691.613 651.873 691.801 648.95 691.848C644.818 691.911 641.43 690.718 639.135 689.634C639.135 688.189 639.233 682.301 641.752 678.187C644.701 673.366 649.793 672.942 653.97 677.794C657.126 681.798 659.214 685.457 658.721 687.75Z" fill="#CDC6D0"/>
<path d="M661.464 673.711C661.151 675.109 660.38 676.114 659.295 676.82C654.401 679.992 643.303 676.946 641.779 676.491C641.663 676.459 641.6 676.444 641.6 676.444L634.375 640.688C634.375 640.688 663.275 665.451 661.464 673.711Z" fill="white" stroke="#371A45" stroke-width="5" stroke-miterlimit="10"/>
<path d="M648.995 692.005C648.995 692.005 654.114 692.005 654.114 702.511C654.114 713.016 657.959 687.797 657.959 687.797" fill="#CDC6D0"/>
<path d="M615.876 834.197C615.766 834.26 615.656 834.307 615.547 834.354C614.636 834.778 613.694 835.171 612.736 835.516C610.6 836.317 608.339 836.929 605.936 837.385C605.717 837.165 605.842 838.217 606.172 840.259C608.213 852.774 618.043 902.302 604.366 923.752C602.325 926.893 597.111 934.964 589.323 939.487C587.627 940.46 585.806 941.277 583.874 941.842C583.827 941.858 583.78 941.873 583.733 941.873C583.591 941.936 583.466 941.968 583.325 941.999C583.183 942.03 583.058 942.062 582.916 942.093C580.781 942.627 578.504 942.831 576.101 942.596C553.034 939.612 549.501 912.933 558.828 901.768C558.828 901.768 538.1 886.693 525.303 859.322C524.204 856.998 523.183 854.58 522.225 852.083C520.922 848.707 519.76 845.158 518.786 841.452C516.226 838.672 514.06 836.081 512.238 833.726C511.641 832.972 511.092 832.234 510.589 831.528C509.16 829.612 507.983 827.884 507.009 826.393C505.973 824.775 504.952 823.095 503.868 823.252C500.995 823.676 500.759 837.008 500.728 838.955C500.712 840.164 500.712 841.311 500.744 842.441C501.12 855.726 504.92 863.609 508.579 878.213C514.86 903.181 519.681 922.951 499.597 933.457C498.011 934.289 496.284 935.058 494.384 935.765C494.117 935.859 493.85 935.969 493.583 936.063C493.348 936.157 493.112 936.236 492.876 936.315C492.547 936.362 492.201 936.409 491.871 936.44C491.62 936.472 491.369 936.487 491.118 936.503C454.624 939.863 443.57 880.333 444.198 870.361C383.883 797.782 410.877 682.489 433.316 638.897C433.347 638.835 433.363 638.787 433.394 638.74C435.498 634.673 437.54 631.25 439.487 628.533C440.837 629.177 442.172 629.837 443.523 630.48C412.824 595.824 400.293 563.036 398.675 533.043C398.675 532.948 398.66 532.838 398.66 532.744C398.566 532.744 398.471 532.76 398.393 532.76C373.3 534.55 365.056 514.764 374.603 493.376C376.016 489.105 378.623 484.237 382.533 480.202C386.537 476.072 391.892 472.821 398.738 472.02C401.376 471.722 404.219 471.769 407.296 472.287C407.5 472.303 407.705 472.334 407.909 472.366C413.059 473.025 416.922 475.145 419.906 478.317C420.345 478.757 420.754 479.228 421.146 479.73H421.162C436.692 499.171 427.255 550.065 468.537 561.795L478.932 582.303C496.865 590.579 586.779 647.707 605.936 647.44C631.469 659.029 672.626 807.69 615.876 834.197Z" fill="white" stroke="#371A45" stroke-width="6" stroke-miterlimit="10" stroke-linecap="round"/>
<path d="M601 838C589.542 836.083 580.446 823.115 590.5 812.5" stroke="#CDC6D0" stroke-width="3" stroke-miterlimit="10" stroke-linecap="round"/>
<path d="M606.046 836.977C595.494 835.296 588.726 827.162 589.323 819.735C589.841 813.375 595.588 809.402 596.624 808.711" stroke="#371A45" stroke-width="4" stroke-miterlimit="10" stroke-linecap="round"/>
<path d="M496.959 824.084C496.959 824.084 489.705 821.006 487.805 817.41L496.959 824.084Z" fill="white"/>
<path d="M496.049 826.251C492.814 823.864 489.296 821.258 487.82 817.41C489.767 819.53 492.578 820.425 495.232 821.258C497.242 821.886 500.225 821.823 499.849 824.712C499.566 826.44 497.43 827.288 496.049 826.251Z" fill="#CDC6D0"/>
<path d="M587.092 820.5C586.094 819.89 579.755 816.617 579.034 816.054C578.35 815.506 577.685 814.912 577.075 814.254C575.855 812.955 574.728 811.453 574.044 809.621C573.341 807.806 573.249 805.63 573.933 803.674C574.617 801.718 575.91 800.184 577.26 798.979C579.976 796.584 583.1 795.16 585.78 793.939L586.593 793.548C586.741 793.438 586.944 793.375 587.092 793.25C587.406 793.031 587.739 792.765 588.016 792.405C588.608 791.716 589.107 790.793 589.476 789.76C590.918 785.487 590.751 780.26 590.271 775.267C589.735 770.212 588.792 765.109 587.628 760.054C585.299 749.912 582.194 739.848 578.867 729.847C575.485 719.846 571.826 709.907 568 700C572.565 709.673 576.945 719.408 581.067 729.252C585.151 739.097 589.014 749.02 592.138 759.193C593.709 764.28 595.058 769.429 596.019 774.703C596.481 777.349 596.832 780.025 596.961 782.764C597.072 785.503 596.98 788.32 596.204 791.278C595.779 792.749 595.169 794.283 594.078 795.786C593.561 796.537 592.858 797.257 592.045 797.914C591.657 798.259 591.177 798.525 590.733 798.822C590.308 799.072 589.92 799.276 589.587 799.448C586.963 800.81 584.726 802.109 583.285 803.58C582.582 804.3 582.157 805.004 582.028 805.568C581.917 806.131 581.954 806.663 582.268 807.305C582.582 807.947 583.155 808.667 583.895 809.355C584.283 809.7 584.689 810.044 585.151 810.357C585.558 810.654 586.168 811.03 586.427 811.155L587.092 820.5Z" fill="#CDC6D0"/>
<path d="M587.941 817.081C587.093 816.358 586.622 815.856 586.025 815.181C585.475 814.537 584.957 813.862 584.486 813.124C583.544 811.679 582.79 809.967 582.429 808.051C582.068 806.151 582.241 804.016 582.932 802.194C583.622 800.373 584.69 798.896 585.821 797.672C586.967 796.447 588.192 795.473 589.432 794.61C590.061 794.186 590.689 793.777 591.285 793.432C591.976 793.008 592.023 793.008 592.275 792.757C593.217 791.94 593.892 789.537 594.096 787.198C594.536 782.345 593.876 777.038 593.091 771.856C592.243 766.642 591.113 761.445 589.856 756.263C587.313 745.898 584.266 735.613 581.031 725.39C577.781 715.167 574.311 705.008 570.73 694.879C574.923 704.772 579.006 714.712 582.884 724.746C586.747 734.781 590.437 744.909 593.641 755.226C595.242 760.392 596.703 765.606 597.912 770.945C599.043 776.3 600.126 781.686 599.985 787.59C599.938 789.066 599.765 790.59 599.404 792.191C599.011 793.762 598.383 795.505 597.001 797.091C596.373 797.876 595.274 798.614 594.85 798.912C594.316 799.273 593.845 799.635 593.374 799.996C592.463 800.718 591.631 801.487 590.987 802.273C590.343 803.058 589.888 803.859 589.684 804.565C589.495 805.272 589.495 805.916 589.684 806.638C589.872 807.36 590.249 808.13 590.814 808.899C591.097 809.276 591.427 809.653 591.772 810.014C592.086 810.344 592.573 810.768 592.761 810.894L587.941 817.081Z" fill="#371A45"/>
<path d="M564.686 903.589C568.423 905.505 572.804 906.541 577.154 906.149C581.519 905.788 585.869 903.95 589.37 900.904C586.45 904.484 582.304 907.248 577.578 908.457C572.851 909.713 567.732 909.446 562.927 907.939C561.671 907.562 560.964 906.227 561.357 904.971C561.765 903.605 563.398 902.914 564.686 903.589Z" fill="#CDC6D0"/>
<path d="M559.22 898.564C564.873 903.306 572.929 905.568 580.246 904.107L582.523 903.621C583.779 903.149 585.742 902.616 586.92 901.972C589.04 901.045 591.175 899.679 593.107 898.407C590.704 900.433 588.066 902.584 585.208 903.935C576.164 908.771 564.795 907.876 556.252 902.223C553.52 900.26 556.708 896.303 559.22 898.564Z" fill="#371A45"/>
<path d="M595.84 641.473C593.893 639.557 590.406 639.306 587.203 640.955C591.129 642.65 594.631 643.969 597.598 644.865C597.536 644.786 597.473 644.692 597.394 644.613C597.253 643.734 596.86 642.478 595.84 641.473Z" fill="#CDC6D0"/>
<path d="M595.84 641.473C593.563 639.274 589.92 640.012 587.517 641.551L587.47 640.326C589.213 640.939 590.909 641.645 592.589 642.399C594.27 643.169 595.934 644.001 597.646 644.692L597.442 644.99C597.41 644.943 597.269 644.708 597.237 644.676C597.175 643.498 596.688 642.321 595.84 641.473ZM595.84 641.473C596.656 642.195 597.379 643.718 597.536 644.519C597.677 644.66 598.007 645.006 598.148 645.163C594.285 644.425 590.422 643.436 586.936 641.583L585.602 640.892C588.789 639.259 593.123 638.835 595.84 641.473Z" fill="#CDC6D0"/>
<path d="M402.5 532.5C402.5 532.5 421.633 532.322 407.5 508.5" stroke="#CDC6D0" stroke-width="6" stroke-miterlimit="10" stroke-linecap="round"/>
<path d="M397 534.621C397 534.621 418.984 527.822 404.851 504" stroke="#371A45" stroke-width="6" stroke-miterlimit="10" stroke-linecap="round"/>
<path d="M397 534.621C397 534.621 418.984 527.822 404.851 504" stroke="#371A45" stroke-width="6" stroke-miterlimit="10" stroke-linecap="round"/>
<path d="M392.583 502.94C400.058 505.342 406.715 502.626 408.349 498.354C409.495 495.371 407.956 492.199 407.312 491.037" stroke="#371A45" stroke-width="5" stroke-miterlimit="10" stroke-linecap="round"/>
<path d="M505.548 876.234C503.931 869.623 502.439 862.981 501.073 856.307C500.319 852.648 499.613 848.974 498.89 845.315C497.98 840.635 497.728 835.72 498.67 831.025C498.875 829.957 500.869 823.786 499.22 823.362C498.309 823.126 497.414 822.875 496.519 822.608C495.577 822.388 494.651 822.121 493.755 821.792C493.237 821.635 492.719 821.493 492.201 821.336C491.651 821.399 491.133 821.509 490.631 821.792C485.826 824.555 487.521 837.086 487.679 841.656C487.993 850.717 490.128 859.589 492.499 868.304C499.314 893.429 506.082 915.367 497.006 925.417C494.745 927.929 490.222 931.101 480.424 931.211C480.754 931.211 481.602 931.965 481.931 932.122C486.108 934.21 492.311 933.3 496.519 931.635C498.404 930.881 500.131 929.829 501.733 928.589C503.774 927.003 505.564 925.118 507.119 923.061C514.263 913.545 511.06 898.768 505.548 876.234Z" fill="#CDC6D0"/>
<path d="M546.376 884.117C546.376 884.117 567.135 908.944 606.047 874.476" stroke="#CDC6D0" stroke-width="3" stroke-miterlimit="10"/>
<path d="M561.294 928.84C580.797 947.746 592.438 925.82 595.5 905.5C597.259 895.576 589.5 883 601.76 875.449C599.954 863 601.225 852.741 600 842C604.412 851.909 606.581 864.316 607.916 875.009C610.02 890.917 610.93 909.227 602.686 924.113C599.797 929.217 596.123 934.006 591.051 937.194C580.326 944.245 566.884 940.115 561.294 928.84Z" fill="#CDC6D0"/>
<path d="M603 838.5L607.5 868.5C603.834 870.667 590.5 880 592.5 878.5C595.7 873.7 593.167 844.833 592.5 834.5L603 838.5Z" fill="#CDC6D0"/>
<path d="M503.193 877.02C501.152 880.773 497.446 886.017 491.149 889.488C479.231 896.067 462.994 893.555 449.804 883.301" stroke="#CDC6D0" stroke-width="3" stroke-miterlimit="10"/>
<path d="M444.999 879.469C444.999 879.469 485.873 906.683 506.303 869.859" stroke="#371A45" stroke-width="6" stroke-miterlimit="10"/>
<path d="M537.755 879.516C537.755 879.516 563.052 904.343 610.459 869.875" stroke="#371A45" stroke-width="6" stroke-miterlimit="10"/>
<path d="M454.739 638.874C439.627 631.876 424.451 673.154 416 700C421 666 435 643 440 632C443.769 633.884 452.864 637.988 454.739 638.874C454.826 638.915 454.913 638.957 455 639C454.942 638.971 454.854 638.929 454.739 638.874Z" fill="#CDC6D0"/>
<path d="M502.716 823.145C502.716 823.145 492.429 821.43 489 818L502.716 823.145Z" fill="white"/>
<path d="M502.15 826.523C497.401 824.396 492.223 822.219 489 818C491.177 819.235 493.629 819.509 496.064 819.732C498.413 819.903 500.967 819.938 503.282 819.766C509.197 819.698 507.739 828.495 502.15 826.523Z" fill="#371A45"/>
<path d="M409 508.5V400" stroke="#371A45" stroke-width="5"/>
<path d="M542 770.996L540.485 782.128C539.712 787.978 535.421 791.859 530.925 790.837L523.226 789.057L523.037 789.019C522.863 789 522.674 788.981 522.5 788.943L461.824 775.067L434.815 768.876C430.335 767.873 427.337 762.288 428.126 756.457L436.819 692.411C437.04 690.764 437.544 689.268 438.27 688L431.092 740.876C430.303 746.726 433.301 752.292 437.781 753.295L464.08 759.315L464.775 759.486L525.451 773.363C525.624 773.401 525.813 773.42 525.987 773.438L526.176 773.476L532.771 774.991L533.875 775.237C537.093 775.975 540.201 774.196 542 770.996Z" fill="#CDC6D0"/>
<path d="M435.576 746.275C416.812 740.622 414.048 728.798 414.048 728.798C412.729 726.693 412.698 724.354 413.436 722.155C415.053 725.704 420.078 733.509 434.273 737.78C443.899 740.669 447.118 737.246 447.95 733.195C448.437 733.367 448.688 733.446 448.688 733.446C448.688 733.446 454.341 751.928 435.576 746.275Z" fill="#CDC6D0"/>
<path d="M584.423 743.464C584.957 743.888 585.538 744.438 586.056 745.176C587.987 747.83 587.909 750.829 587.83 751.866C582.994 755.791 576.304 760.392 567.652 764.161C556.645 768.966 546.595 770.647 539.403 771.228L534.158 755.65C534.158 755.65 535.823 756.011 538.712 756.058L541.366 763.926C546.234 764.098 554.964 763.753 564.543 759.419C575.127 754.661 581.439 747.422 584.423 743.464Z" fill="#CDC6D0"/>
<path d="M405.521 714.288C405.537 717.821 417.55 734.074 462.758 751.646C512.913 771.133 575.441 766.391 582.492 746.621C584.549 740.858 583.34 729.724 580.168 728.892C578.158 728.358 575.614 732.048 574.939 732.943C566.365 744.438 521.33 757.613 480.015 742.459C445.815 729.913 415.54 698.459 410.342 703.06C407.751 705.353 406.448 708.87 406.448 708.87C406.448 708.87 405.521 711.399 405.521 714.288Z" fill="white" stroke="#371A45" stroke-width="6" stroke-miterlimit="10"/>
<path d="M548.244 724.15L539.843 770.866C539.623 772.076 539.136 773.175 538.445 774.117C536.702 776.457 533.703 777.744 530.594 777.226L529.526 777.038L523.151 775.923C526.009 776.174 528.71 774.886 530.295 772.704C531.002 771.777 531.489 770.694 531.693 769.485L539.419 726.552L540.094 722.768C540.863 718.512 537.958 714.445 533.624 713.707L492.452 706.594L456.257 700.359C456.492 700.375 456.728 700.406 456.963 700.454L541.758 715.089C546.108 715.843 549.013 719.894 548.244 724.15Z" fill="#B3B3B3" stroke="#371A45" stroke-width="4" stroke-miterlimit="10" stroke-linecap="round" stroke-linejoin="round"/>
<path d="M537.629 722.689L536.969 726.458L529.416 769.28C529.212 770.474 528.741 771.573 528.05 772.484C526.496 774.667 523.858 775.939 521.063 775.687L520.874 775.656C520.701 775.64 520.529 775.624 520.372 775.593L463.009 765.496L462.35 765.37L437.492 760.989C433.253 760.251 430.41 756.2 431.164 751.944L437.948 713.487L439.377 705.353C440.115 701.113 444.166 698.271 448.421 699.025L455.645 700.297C455.66 700.297 455.66 700.297 455.676 700.297L491.055 706.531L531.301 713.629C535.541 714.382 538.383 718.434 537.629 722.689Z" fill="white" stroke="#371A45" stroke-width="5" stroke-miterlimit="10" stroke-linecap="round" stroke-linejoin="round"/>
<path d="M515.755 742.758C520.525 742.758 524.391 738.891 524.391 734.121C524.391 729.351 520.525 725.484 515.755 725.484C510.985 725.484 507.118 729.351 507.118 734.121C507.118 738.891 510.985 742.758 515.755 742.758Z" fill="#7876FE" stroke="#371A45" stroke-width="5" stroke-miterlimit="10" stroke-linecap="round"/>
<path d="M470.217 763.957C471.347 756.577 472.478 749.18 473.609 741.8L474.299 741.91L491.997 744.611L493.834 730.557C494.87 723.883 495.891 717.225 496.927 710.551" stroke="#CDC6D0" stroke-width="5" stroke-miterlimit="10" stroke-linejoin="round"/>
<path d="M467.799 766.312L471.882 740.23L472.557 740.34L489.845 743.04L491.636 729.002L494.305 708.211" stroke="#371A45" stroke-width="5" stroke-miterlimit="10" stroke-linecap="round" stroke-linejoin="round"/>
<path d="M646.261 643.608C643.278 644.912 635.332 640.059 630.967 637.154C630.951 637.154 630.935 637.139 630.92 637.123C629.177 635.945 628.03 635.097 628.03 635.097C628.03 635.097 651.883 577.718 660.645 578.377C662.875 578.534 664.869 579.382 666.643 580.686C671.872 584.58 675.044 592.699 675.735 600.252C676.662 610.333 650.454 641.771 646.261 643.608Z" fill="white" stroke="#371A45" stroke-width="6" stroke-miterlimit="10"/>
<path d="M640.138 638.88C636.873 637.896 633.561 635.467 633.561 635.467C632.122 634.407 631.07 633.392 630.853 633.146C624.741 626.613 653.261 577.512 659.451 578.004C661.262 578.142 662.902 578.849 664.372 579.971C664.666 580.202 664.899 580.509 665.053 580.863C666.647 584.645 667.638 588.995 667.963 593.177C668.999 606.151 648.201 641.309 640.138 638.88Z" fill="#CDC6D0"/>
<path d="M491.887 479.809C491.887 479.809 479.153 465.472 468.679 484.08C458.189 502.688 449.741 511.576 455.504 520.386C461.267 529.195 466.496 533.341 466.496 533.341L491.887 479.809Z" fill="white" stroke="#371A45" stroke-width="6" stroke-miterlimit="10"/>
<path d="M622.456 631.501C618.279 636.118 613.426 640.201 607.852 643.483C595.086 651.02 579.477 654.239 564.167 653.925C539.089 653.423 514.405 643.451 497.446 626.963C487.223 617.023 479.733 604.712 476.922 591.458C475.65 585.475 475.383 579.335 476.137 573.29C476.482 570.542 477.032 567.809 477.817 565.14C481.397 552.829 489.107 541.381 499.44 532.32C492.107 540.25 486.626 549.515 483.784 559.33C483.015 562.015 482.465 564.731 482.12 567.495C481.366 573.541 481.633 579.697 482.905 585.664C485.716 598.917 493.222 611.228 503.428 621.168C520.387 637.641 545.056 647.613 570.15 648.115C585.46 648.429 601.068 645.226 613.835 637.672C616.912 635.867 619.786 633.794 622.456 631.501Z" fill="#CDC6D0"/>
<path d="M661.901 598.87C657.928 608.056 652.825 616.834 646.528 624.592C643.089 627.905 639.368 630.904 635.379 633.543C618.891 644.456 598.729 649.104 578.959 648.649C546.564 647.927 514.703 633.495 492.798 609.642C479.608 595.243 469.919 577.435 466.292 558.246C464.659 549.609 464.313 540.706 465.287 531.959C465.726 527.97 466.449 524.029 467.438 520.15C471.097 505.955 478.179 492.544 487.647 481.065C505.392 463.65 529.103 452.344 554.133 452.25C590.406 452.124 626.507 467.686 648.915 495.543C671.637 523.793 676.929 564.135 661.901 598.87Z" fill="white" stroke="#371A45" stroke-width="6" stroke-miterlimit="10"/>
<path d="M480.424 491.508C507.559 452.25 583.387 455.061 623.791 493.219C655.432 523.102 672.344 581.298 643.733 615.562C613.961 651.224 550.93 641.787 514.97 613.992C477.818 585.271 456.163 526.604 480.424 491.508Z" stroke="#371A45" stroke-width="5" stroke-miterlimit="10"/>
<path d="M485.134 489.937C512.112 456.49 576.132 464.514 612.327 494.648C649.935 525.96 668.025 589.951 639.022 621.844C610.568 653.124 547.836 641.394 512.913 610.585C479.481 581.094 458.675 522.757 485.134 489.937Z" fill="#1C1A31" stroke="#371A45" stroke-width="5" stroke-miterlimit="10"/>
<path d="M553.409 562.945C582.542 546.125 595.307 513.694 581.921 490.509C568.535 467.324 534.067 462.165 504.935 478.985C475.802 495.806 463.037 528.237 476.423 551.421C489.809 574.606 524.277 579.766 553.409 562.945Z" fill="#371A45" stroke="#371A45" stroke-width="3" stroke-miterlimit="10"/>
<path d="M636.526 595.148C631.47 603.393 620.76 606.015 612.611 601.021C604.445 596.028 601.933 585.287 606.973 577.043C612.03 568.799 623.367 560.193 631.532 565.203C639.698 570.196 641.582 586.904 636.526 595.148Z" fill="#CDC6D0" fill-opacity="0.54"/>
<path d="M595.039 613.521C595.321 618.106 590.501 621.027 585.963 621.31C581.425 621.592 577.515 618.106 577.216 613.521C576.918 608.936 580.372 604.994 584.911 604.696C589.464 604.413 594.756 608.936 595.039 613.521Z" fill="#CDC6D0" fill-opacity="0.54"/>
<path d="M599.168 521.878C566.067 494.036 518.393 509.582 497.336 523.526C497.886 506.536 533.719 487.268 538.807 487.943C589.464 490.299 600.66 520.826 599.168 521.878Z" fill="#CDC6D0" fill-opacity="0.54"/>
<path d="M491.844 259.807C476.114 252.447 459.295 247.098 441.711 244.053C439.552 247.957 437.029 253.208 435.289 257.386C416.597 254.575 398.077 254.575 379.729 257.386C377.99 253.208 375.409 247.957 373.231 244.053C355.628 247.098 338.789 252.467 323.059 259.846C291.332 307.789 282.732 354.543 287.032 400.632C308.075 416.346 328.468 425.892 348.518 432.139C353.468 425.326 357.883 418.084 361.686 410.451C354.442 407.699 347.505 404.302 340.949 400.359C342.688 399.07 344.389 397.723 346.033 396.337C386.017 415.039 429.46 415.039 468.966 396.337C470.629 397.723 472.33 399.07 474.05 400.359C467.475 404.321 460.518 407.718 453.275 410.471C457.078 418.084 461.474 425.346 466.443 432.158C486.512 425.912 506.924 416.366 527.967 400.632C533.013 347.203 519.347 300.879 491.844 259.807ZM367.133 372.287C355.131 372.287 345.287 361.082 345.287 347.437C345.287 333.792 354.92 322.567 367.133 322.567C379.347 322.567 389.19 333.772 388.979 347.437C388.998 361.082 379.347 372.287 367.133 372.287ZM447.866 372.287C435.863 372.287 426.02 361.082 426.02 347.437C426.02 333.792 435.653 322.567 447.866 322.567C460.079 322.567 469.922 333.772 469.712 347.437C469.712 361.082 460.079 372.287 447.866 372.287Z" fill="url(#paint0_linear_191_87)"/>
<path d="M491.844 259.807C476.114 252.447 459.295 247.098 441.711 244.053C439.552 247.957 437.029 253.208 435.289 257.386C416.597 254.575 398.077 254.575 379.729 257.386C377.99 253.208 375.409 247.957 373.231 244.053C355.628 247.098 338.789 252.467 323.059 259.846C291.332 307.789 282.732 354.543 287.032 400.632C308.075 416.346 328.468 425.892 348.518 432.139C353.468 425.326 357.883 418.084 361.686 410.451C354.442 407.699 347.505 404.302 340.949 400.359C342.688 399.07 344.389 397.723 346.033 396.337C386.017 415.039 429.46 415.039 468.966 396.337C470.629 397.723 472.33 399.07 474.05 400.359C467.475 404.321 460.518 407.718 453.275 410.471C457.078 418.084 461.474 425.346 466.443 432.158C486.512 425.912 506.924 416.366 527.967 400.632C533.013 347.203 519.347 300.879 491.844 259.807ZM367.133 372.287C355.131 372.287 345.287 361.082 345.287 347.437C345.287 333.792 354.92 322.567 367.133 322.567C379.347 322.567 389.19 333.772 388.979 347.437C388.998 361.082 379.347 372.287 367.133 372.287ZM447.866 372.287C435.863 372.287 426.02 361.082 426.02 347.437C426.02 333.792 435.653 322.567 447.866 322.567C460.079 322.567 469.922 333.772 469.712 347.437C469.712 361.082 460.079 372.287 447.866 372.287Z" fill="url(#paint1_linear_191_87)"/>
<defs>
<linearGradient id="paint0_linear_191_87" x1="408" y1="261" x2="408" y2="406" gradientUnits="userSpaceOnUse">
<stop stop-color="#7C86F6"/>
<stop offset="1" stop-color="#616CE9"/>
</linearGradient>
<linearGradient id="paint1_linear_191_87" x1="408" y1="261" x2="408" y2="406" gradientUnits="userSpaceOnUse">
<stop stop-color="#7C86F6"/>
<stop offset="1" stop-color="#616CE9"/>
</linearGradient>
</defs>
</svg>
