<svg width="393" height="729" viewBox="0 0 393 729" fill="none" xmlns="http://www.w3.org/2000/svg">
<path d="M329.876 617.197C329.766 617.26 329.656 617.307 329.547 617.354C328.636 617.778 327.694 618.171 326.736 618.516C324.6 619.317 322.339 619.929 319.936 620.385C319.717 620.165 319.842 621.217 320.172 623.259C322.213 635.774 332.043 685.302 318.366 706.752C316.325 709.893 311.111 717.964 303.323 722.487C301.627 723.46 299.806 724.277 297.874 724.842C297.827 724.858 297.78 724.873 297.733 724.873C297.591 724.936 297.466 724.968 297.325 724.999C297.183 725.03 297.058 725.062 296.916 725.093C294.781 725.627 292.504 725.831 290.101 725.596C267.034 722.612 263.501 695.933 272.828 684.768C272.828 684.768 252.1 669.693 239.303 642.322C238.204 639.998 237.183 637.58 236.225 635.083C234.922 631.707 233.76 628.158 232.786 624.452C230.226 621.672 228.06 619.081 226.238 616.726C225.641 615.972 225.092 615.234 224.589 614.528C223.16 612.612 221.983 610.884 221.009 609.393C219.973 607.775 218.952 606.095 217.868 606.252C214.995 606.676 214.759 620.008 214.728 621.955C214.712 623.164 214.712 624.311 214.744 625.441C215.12 638.726 218.92 646.609 222.579 661.213C228.86 686.181 233.681 705.951 213.597 716.457C212.011 717.289 210.284 718.058 208.384 718.765C208.117 718.859 207.85 718.969 207.583 719.063C207.348 719.157 207.112 719.236 206.876 719.315C206.547 719.362 206.201 719.409 205.871 719.44C205.62 719.472 205.369 719.487 205.118 719.503C168.624 722.863 157.57 663.333 158.198 653.361C97.8834 580.782 124.877 465.489 147.316 421.897C147.347 421.835 147.363 421.787 147.394 421.74C149.498 417.673 151.54 414.25 153.487 411.533C154.837 412.177 156.172 412.837 157.523 413.48C126.824 378.824 114.293 346.036 112.675 316.043C112.675 315.948 112.66 315.838 112.66 315.744C112.566 315.744 112.471 315.76 112.393 315.76C87.2998 317.55 79.0558 297.764 88.6031 276.376C90.0163 272.105 92.623 267.237 96.533 263.202C100.537 259.072 105.892 255.821 112.738 255.02C115.376 254.722 118.219 254.769 121.296 255.287C121.5 255.303 121.705 255.334 121.909 255.366C127.059 256.025 130.922 258.145 133.906 261.317C134.345 261.757 134.754 262.228 135.146 262.73H135.162C150.692 282.171 141.255 333.065 182.537 344.795L192.932 365.303C210.865 373.579 300.779 430.707 319.936 430.44C345.469 442.029 386.626 590.69 329.876 617.197Z" fill="white" stroke="#371A45" stroke-width="6" stroke-miterlimit="10" stroke-linecap="round"/>
<path d="M315 621C303.542 619.083 294.446 606.115 304.5 595.5" stroke="#CDC6D0" stroke-width="3" stroke-miterlimit="10" stroke-linecap="round"/>
<path d="M320.046 619.977C309.494 618.296 302.726 610.162 303.323 602.735C303.841 596.375 309.588 592.402 310.624 591.711" stroke="#371A45" stroke-width="4" stroke-miterlimit="10" stroke-linecap="round"/>
<path d="M210.959 607.084C210.959 607.084 203.705 604.006 201.805 600.41Z" fill="white"/>
<path d="M210.049 609.251C206.814 606.864 203.296 604.258 201.82 600.41C203.767 602.53 206.578 603.425 209.232 604.258C211.242 604.886 214.225 604.823 213.849 607.712C213.566 609.44 211.43 610.288 210.049 609.251Z" fill="#CDC6D0"/>
<path d="M301.092 603.5C300.094 602.89 293.755 599.617 293.034 599.054C292.35 598.506 291.685 597.912 291.075 597.254C289.855 595.955 288.728 594.453 288.044 592.621C287.341 590.806 287.249 588.63 287.933 586.674C288.617 584.718 289.91 583.184 291.26 581.979C293.976 579.584 297.1 578.16 299.78 576.939L300.593 576.548C300.741 576.438 300.944 576.375 301.092 576.25C301.406 576.031 301.739 575.765 302.016 575.405C302.608 574.716 303.107 573.793 303.476 572.76C304.918 568.487 304.751 563.26 304.271 558.267C303.735 553.212 302.792 548.109 301.628 543.054C299.299 532.912 296.194 522.848 292.867 512.847C289.485 502.846 285.826 492.907 282 483C286.565 492.673 290.945 502.408 295.067 512.252C299.151 522.097 303.014 532.02 306.138 542.193C307.709 547.28 309.058 552.429 310.019 557.703C310.481 560.349 310.832 563.025 310.961 565.764C311.072 568.503 310.98 571.32 310.204 574.278C309.779 575.749 309.169 577.283 308.078 578.786C307.561 579.537 306.858 580.257 306.045 580.914C305.657 581.259 305.177 581.525 304.733 581.822C304.308 582.072 303.92 582.276 303.587 582.448C300.963 583.81 298.726 585.109 297.285 586.58C296.582 587.3 296.157 588.004 296.028 588.568C295.917 589.131 295.954 589.663 296.268 590.305C296.582 590.947 297.155 591.667 297.895 592.355C298.283 592.7 298.689 593.044 299.151 593.357C299.558 593.654 300.168 594.03 300.427 594.155L301.092 603.5Z" fill="#CDC6D0"/>
<path d="M301.941 600.081C301.093 599.358 300.622 598.856 300.025 598.181C299.475 597.537 298.957 596.862 298.486 596.124C297.544 594.679 296.79 592.967 296.429 591.051C296.068 589.151 296.241 587.016 296.932 585.194C297.622 583.373 298.69 581.896 299.821 580.672C300.967 579.447 302.192 578.473 303.432 577.61C304.061 577.186 304.689 576.777 305.285 576.432C305.976 576.008 306.023 576.008 306.275 575.757C307.217 574.94 307.892 572.537 308.096 570.198C308.536 565.345 307.876 560.038 307.091 554.856C306.243 549.642 305.113 544.445 303.856 539.263C301.313 528.898 298.266 518.613 295.031 508.39C291.781 498.167 288.311 488.008 284.73 477.879C288.923 487.772 293.006 497.712 296.884 507.746C300.747 517.781 304.437 527.909 307.641 538.226C309.242 543.392 310.703 548.606 311.912 553.945C313.043 559.3 314.126 564.686 313.985 570.59C313.938 572.066 313.765 573.59 313.404 575.191C313.011 576.762 312.383 578.505 311.001 580.091C310.373 580.876 309.274 581.614 308.85 581.912C308.316 582.273 307.845 582.635 307.374 582.996C306.463 583.718 305.631 584.487 304.987 585.273C304.343 586.058 303.888 586.859 303.684 587.565C303.495 588.272 303.495 588.916 303.684 589.638C303.872 590.36 304.249 591.13 304.814 591.899C305.097 592.276 305.427 592.653 305.772 593.014C306.086 593.344 306.573 593.768 306.761 593.894L301.941 600.081Z" fill="#371A45"/>
<path d="M278.686 686.589C282.423 688.505 286.804 689.541 291.154 689.149C295.519 688.788 299.869 686.95 303.37 683.904C300.45 687.484 296.304 690.248 291.578 691.457C286.851 692.713 281.732 692.446 276.927 690.939C275.671 690.562 274.964 689.227 275.357 687.971C275.765 686.605 277.398 685.914 278.686 686.589Z" fill="#CDC6D0"/>
<path d="M273.22 681.564C278.873 686.306 286.929 688.568 294.246 687.107L296.523 686.621C297.779 686.149 299.742 685.616 300.92 684.972C303.04 684.045 305.175 682.679 307.107 681.407C304.704 683.433 302.066 685.584 299.208 686.935C290.164 691.771 278.795 690.876 270.252 685.223C267.52 683.26 270.708 679.303 273.22 681.564Z" fill="#371A45"/>
<path d="M309.84 424.473C307.893 422.557 304.406 422.306 301.203 423.955C305.129 425.65 308.631 426.969 311.598 427.865C311.536 427.786 311.473 427.692 311.394 427.613C311.253 426.734 310.86 425.478 309.84 424.473Z" fill="#CDC6D0"/>
<path d="M309.84 424.473C307.563 422.274 303.92 423.012 301.517 424.551L301.47 423.326C303.213 423.939 304.909 424.645 306.589 425.399C308.27 426.169 309.934 427.001 311.646 427.692L311.442 427.99C311.41 427.943 311.269 427.708 311.237 427.676C311.175 426.498 310.688 425.321 309.84 424.473ZM309.84 424.473C310.656 425.195 311.379 426.718 311.536 427.519C311.677 427.66 312.007 428.006 312.148 428.163C308.285 427.425 304.422 426.436 300.936 424.583L299.602 423.892C302.789 422.259 307.123 421.835 309.84 424.473Z" fill="#CDC6D0"/>
<path d="M116.5 315.5C116.5 315.5 135.633 315.322 121.5 291.5" stroke="#CDC6D0" stroke-width="6" stroke-miterlimit="10" stroke-linecap="round"/>
<path d="M111 317.621C111 317.621 132.984 310.822 118.851 287" stroke="#371A45" stroke-width="6" stroke-miterlimit="10" stroke-linecap="round"/>
<path d="M111 317.621C111 317.621 132.984 310.822 118.851 287" stroke="#371A45" stroke-width="6" stroke-miterlimit="10" stroke-linecap="round"/>
<path d="M106.583 285.94C114.058 288.342 120.715 285.626 122.349 281.354C123.495 278.371 121.956 275.199 121.312 274.037" stroke="#371A45" stroke-width="5" stroke-miterlimit="10" stroke-linecap="round"/>
<path d="M219.548 659.234C217.931 652.623 216.439 645.981 215.073 639.307C214.319 635.648 213.613 631.974 212.89 628.315C211.98 623.635 211.728 618.72 212.67 614.025C212.875 612.957 214.869 606.786 213.22 606.362C212.309 606.126 211.414 605.875 210.519 605.608C209.577 605.388 208.651 605.121 207.755 604.792C207.237 604.635 206.719 604.493 206.201 604.336C205.651 604.399 205.133 604.509 204.631 604.792C199.826 607.555 201.521 620.086 201.679 624.656C201.993 633.717 204.128 642.589 206.499 651.304C213.314 676.429 220.082 698.367 211.006 708.417C208.745 710.929 204.222 714.101 194.424 714.211C194.754 714.211 195.602 714.965 195.931 715.122C200.108 717.21 206.311 716.3 210.519 714.635C212.404 713.881 214.131 712.829 215.733 711.589C217.774 710.003 219.564 708.118 221.119 706.061C228.263 696.545 225.06 681.768 219.548 659.234Z" fill="#CDC6D0"/>
<path d="M260.376 667.117C260.376 667.117 281.135 691.944 320.047 657.476" stroke="#CDC6D0" stroke-width="3" stroke-miterlimit="10"/>
<path d="M275.294 711.84C294.797 730.746 306.438 708.82 309.5 688.5C311.259 678.576 303.5 666 315.76 658.449C313.954 646 315.225 635.741 314 625C318.412 634.909 320.581 647.316 321.916 658.009C324.02 673.917 324.93 692.227 316.686 707.113C313.797 712.217 310.123 717.006 305.051 720.194C294.326 727.245 280.884 723.115 275.294 711.84Z" fill="#CDC6D0"/>
<path d="M317 621.5L321.5 651.5C317.834 653.667 304.5 663 306.5 661.5C309.7 656.7 307.167 627.833 306.5 617.5L317 621.5Z" fill="#CDC6D0"/>
<path d="M217.193 660.02C215.152 663.773 211.446 669.017 205.149 672.488C193.231 679.067 176.994 676.555 163.804 666.301" stroke="#CDC6D0" stroke-width="3" stroke-miterlimit="10"/>
<path d="M158.999 662.469C158.999 662.469 199.873 689.683 220.303 652.859" stroke="#371A45" stroke-width="6" stroke-miterlimit="10"/>
<path d="M251.755 662.516C251.755 662.516 277.052 687.343 324.459 652.875" stroke="#371A45" stroke-width="6" stroke-miterlimit="10"/>
<path d="M168.739 421.874C153.627 414.876 138.451 456.154 130 483C135 449 149 426 154 415C157.769 416.884 166.864 420.988 168.739 421.874C168.826 421.915 168.913 421.957 169 422C168.942 421.971 168.854 421.929 168.739 421.874Z" fill="#CDC6D0"/>
<path d="M216.716 606.145C216.716 606.145 206.429 604.43 203 601Z" fill="white"/>
<path d="M216.15 609.523C211.401 607.396 206.223 605.219 203 601C205.177 602.235 207.629 602.509 210.064 602.732C212.413 602.903 214.967 602.938 217.282 602.766C223.197 602.698 221.739 611.495 216.15 609.523Z" fill="#371A45"/>
<path d="M123 291.5V183" stroke="#371A45" stroke-width="5"/>
<path d="M256 553.996L254.485 565.128C253.712 570.978 249.421 574.859 244.925 573.837L237.226 572.057L237.037 572.019C236.863 572 236.674 571.981 236.5 571.943L175.824 558.067L148.815 551.876C144.335 550.873 141.337 545.288 142.126 539.457L150.819 475.411C151.04 473.764 151.544 472.268 152.27 471L145.092 523.876C144.303 529.726 147.301 535.292 151.781 536.295L178.08 542.315L178.775 542.486L239.451 556.363C239.624 556.401 239.813 556.42 239.987 556.438L240.176 556.476L246.771 557.991L247.875 558.237C251.094 558.975 254.201 557.196 256 553.996Z" fill="#CDC6D0"/>
<path d="M149.576 529.275C130.812 523.622 128.048 511.798 128.048 511.798C126.729 509.693 126.698 507.354 127.436 505.155C129.053 508.704 134.078 516.509 148.273 520.78C157.899 523.669 161.118 520.246 161.95 516.195C162.437 516.367 162.688 516.446 162.688 516.446C162.688 516.446 168.341 534.928 149.576 529.275Z" fill="#CDC6D0"/>
<path d="M298.423 526.464C298.957 526.888 299.538 527.438 300.056 528.176C301.987 530.83 301.909 533.829 301.83 534.866C296.994 538.791 290.304 543.392 281.652 547.161C270.645 551.966 260.595 553.647 253.403 554.228L248.158 538.65C248.158 538.65 249.823 539.011 252.712 539.058L255.366 546.926C260.234 547.098 268.964 546.753 278.543 542.419C289.127 537.661 295.439 530.422 298.423 526.464Z" fill="#CDC6D0"/>
<path d="M119.521 497.288C119.537 500.821 131.55 517.074 176.758 534.646C226.913 554.133 289.441 549.391 296.492 529.621C298.549 523.858 297.34 512.724 294.168 511.892C292.158 511.358 289.614 515.048 288.939 515.943C280.365 527.438 235.33 540.613 194.015 525.459C159.815 512.913 129.54 481.459 124.342 486.06C121.751 488.353 120.448 491.87 120.448 491.87C120.448 491.87 119.521 494.399 119.521 497.288Z" fill="white" stroke="#371A45" stroke-width="6" stroke-miterlimit="10"/>
<path d="M262.244 507.15L253.843 553.866C253.623 555.076 253.136 556.175 252.445 557.117C250.702 559.457 247.703 560.744 244.594 560.226L243.526 560.038L237.151 558.923C240.009 559.174 242.71 557.886 244.295 555.704C245.002 554.777 245.489 553.694 245.693 552.485L253.419 509.552L254.094 505.768C254.863 501.512 251.958 497.445 247.624 496.707L206.452 489.594L170.257 483.359C170.492 483.375 170.728 483.406 170.963 483.454L255.759 498.089C260.108 498.843 263.013 502.894 262.244 507.15Z" fill="#B3B3B3" stroke="#371A45" stroke-width="4" stroke-miterlimit="10" stroke-linecap="round" stroke-linejoin="round"/>
<path d="M251.629 505.689L250.969 509.458L243.416 552.28C243.212 553.474 242.741 554.573 242.05 555.484C240.496 557.667 237.858 558.939 235.063 558.687L234.874 558.656C234.701 558.64 234.529 558.624 234.372 558.593L177.009 548.496L176.35 548.37L151.492 543.989C147.253 543.251 144.41 539.2 145.164 534.944L151.948 496.487L153.377 488.353C154.115 484.113 158.166 481.271 162.421 482.025L169.645 483.297C169.66 483.297 169.66 483.297 169.676 483.297L205.055 489.531L245.301 496.629C249.541 497.382 252.383 501.434 251.629 505.689Z" fill="white" stroke="#371A45" stroke-width="5" stroke-miterlimit="10" stroke-linecap="round" stroke-linejoin="round"/>
<path d="M229.755 525.758C234.525 525.758 238.391 521.891 238.391 517.121C238.391 512.351 234.525 508.484 229.755 508.484C224.985 508.484 221.118 512.351 221.118 517.121C221.118 521.891 224.985 525.758 229.755 525.758Z" fill="#7876FE" stroke="#371A45" stroke-width="5" stroke-miterlimit="10" stroke-linecap="round"/>
<path d="M184.217 546.957C185.347 539.577 186.478 532.18 187.609 524.8L188.299 524.91L205.997 527.611L207.834 513.557C208.87 506.883 209.891 500.225 210.927 493.551" stroke="#CDC6D0" stroke-width="5" stroke-miterlimit="10" stroke-linejoin="round"/>
<path d="M181.799 549.312L185.882 523.23L186.557 523.34L203.845 526.04L205.636 512.002L208.305 491.211" stroke="#371A45" stroke-width="5" stroke-miterlimit="10" stroke-linecap="round" stroke-linejoin="round"/>
<path d="M360.261 426.608C357.278 427.912 349.332 423.059 344.967 420.154C344.951 420.154 344.935 420.139 344.92 420.123C343.177 418.945 342.03 418.097 342.03 418.097C342.03 418.097 365.883 360.718 374.645 361.377C376.875 361.534 378.869 362.382 380.643 363.686C385.872 367.58 389.044 375.699 389.735 383.252C390.662 393.333 364.454 424.771 360.261 426.608Z" fill="white" stroke="#371A45" stroke-width="6" stroke-miterlimit="10"/>
<path d="M354.138 421.88C350.873 420.896 347.561 418.467 347.561 418.467C346.122 417.407 345.07 416.392 344.853 416.146C338.741 409.613 367.261 360.512 373.451 361.004C375.262 361.142 376.902 361.849 378.372 362.971C378.666 363.202 378.899 363.509 379.053 363.863C380.647 367.645 381.638 371.995 381.963 376.177C382.999 389.151 362.201 424.309 354.138 421.88Z" fill="#CDC6D0"/>
<path d="M205.887 262.809C205.887 262.809 193.153 248.472 182.679 267.08C172.189 285.688 163.741 294.576 169.504 303.386C175.267 312.195 180.496 316.341 180.496 316.341L205.887 262.809Z" fill="white" stroke="#371A45" stroke-width="6" stroke-miterlimit="10"/>
<path d="M336.456 414.501C332.279 419.118 327.426 423.201 321.852 426.483C309.086 434.02 293.477 437.239 278.167 436.925C253.089 436.423 228.405 426.451 211.446 409.963C201.223 400.023 193.733 387.712 190.922 374.458C189.65 368.475 189.383 362.335 190.137 356.29C190.482 353.542 191.032 350.809 191.817 348.14C195.397 335.829 203.107 324.381 213.44 315.32C206.107 323.25 200.626 332.515 197.784 342.33C197.015 345.015 196.465 347.731 196.12 350.495C195.366 356.541 195.633 362.697 196.905 368.664C199.716 381.917 207.222 394.228 217.428 404.168C234.387 420.641 259.056 430.613 284.15 431.115C299.46 431.429 315.068 428.226 327.835 420.672C330.912 418.867 333.786 416.794 336.456 414.501Z" fill="#CDC6D0"/>
<path d="M375.901 381.87C371.928 391.056 366.825 399.834 360.528 407.592C357.089 410.905 353.368 413.904 349.379 416.543C332.891 427.456 312.729 432.104 292.959 431.649C260.564 430.927 228.703 416.495 206.798 392.642C193.608 378.243 183.919 360.435 180.292 341.246C178.659 332.609 178.313 323.706 179.287 314.959C179.726 310.97 180.449 307.029 181.438 303.15C185.097 288.955 192.179 275.544 201.647 264.065C219.392 246.65 243.103 235.344 268.133 235.25C304.406 235.124 340.507 250.686 362.915 278.543C385.637 306.793 390.929 347.135 375.901 381.87Z" fill="white" stroke="#371A45" stroke-width="6" stroke-miterlimit="10"/>
<path d="M194.424 274.508C221.559 235.25 297.387 238.061 337.791 276.219C369.432 306.102 386.344 364.298 357.733 398.562C327.961 434.224 264.93 424.787 228.97 396.992C191.818 368.271 170.163 309.604 194.424 274.508Z" stroke="#371A45" stroke-width="5" stroke-miterlimit="10"/>
<path d="M199.134 272.937C226.112 239.49 290.132 247.514 326.327 277.648C363.935 308.96 382.025 372.951 353.022 404.844C324.568 436.124 261.836 424.394 226.913 393.585C193.481 364.094 172.675 305.757 199.134 272.937Z" fill="#1C1A31" stroke="#371A45" stroke-width="5" stroke-miterlimit="10"/>
<path d="M267.409 345.945C296.542 329.125 309.307 296.694 295.921 273.509C282.535 250.324 248.067 245.165 218.935 261.985C189.802 278.806 177.037 311.237 190.423 334.421C203.809 357.606 238.277 362.766 267.409 345.945Z" fill="#371A45" stroke="#371A45" stroke-width="3" stroke-miterlimit="10"/>
<path d="M350.526 378.148C345.47 386.393 334.76 389.015 326.611 384.021C318.445 379.028 315.933 368.287 320.973 360.043C326.03 351.799 337.367 343.193 345.532 348.203C353.698 353.196 355.582 369.904 350.526 378.148Z" fill="#CDC6D0" fill-opacity="0.54"/>
<path d="M309.039 396.521C309.321 401.106 304.501 404.027 299.963 404.31C295.425 404.592 291.515 401.106 291.216 396.521C290.918 391.936 294.372 387.994 298.911 387.696C303.464 387.413 308.756 391.936 309.039 396.521Z" fill="#CDC6D0" fill-opacity="0.54"/>
<path d="M313.168 304.878C280.067 277.036 232.393 292.582 211.336 306.526C211.886 289.536 247.719 270.268 252.807 270.943C303.464 273.299 314.66 303.826 313.168 304.878Z" fill="#CDC6D0" fill-opacity="0.54"/>
<path d="M205.844 42.8065C190.114 35.4469 173.295 30.0983 155.711 27.0527C153.552 30.957 151.029 36.2084 149.289 40.3859C130.597 37.5748 112.077 37.5748 93.7287 40.3859C91.9896 36.2084 89.4094 30.957 87.2305 27.0527C69.6277 30.0983 52.7893 35.4666 37.0595 42.8455C5.33226 90.7895 -3.26846 137.543 1.03191 183.632C22.0751 199.346 42.4684 208.892 62.5176 215.139C67.4678 208.326 71.8828 201.084 75.6862 193.451C68.4425 190.699 61.5046 187.302 54.9491 183.359C56.6883 182.07 58.3894 180.723 60.033 179.337C100.017 198.039 143.46 198.039 182.966 179.337C184.629 180.723 186.33 182.07 188.05 183.359C181.475 187.321 174.518 190.718 167.275 193.471C171.078 201.084 175.474 208.346 180.443 215.158C200.512 208.912 220.924 199.366 241.967 183.632C247.013 130.203 233.347 83.8789 205.844 42.8065ZM81.1334 155.287C69.1307 155.287 59.2875 144.082 59.2875 130.437C59.2875 116.792 68.9205 105.567 81.1334 105.567C93.3467 105.567 103.19 116.772 102.979 130.437C102.998 144.082 93.3467 155.287 81.1334 155.287ZM161.866 155.287C149.863 155.287 140.02 144.082 140.02 130.437C140.02 116.792 149.653 105.567 161.866 105.567C174.079 105.567 183.922 116.772 183.712 130.437C183.712 144.082 174.079 155.287 161.866 155.287Z" fill="url(#paint0_linear_212_3)"/>
<path d="M205.844 42.8065C190.114 35.4469 173.295 30.0983 155.711 27.0527C153.552 30.957 151.029 36.2084 149.289 40.3859C130.597 37.5748 112.077 37.5748 93.7287 40.3859C91.9896 36.2084 89.4094 30.957 87.2305 27.0527C69.6277 30.0983 52.7893 35.4666 37.0595 42.8455C5.33226 90.7895 -3.26846 137.543 1.03191 183.632C22.0751 199.346 42.4684 208.892 62.5176 215.139C67.4678 208.326 71.8828 201.084 75.6862 193.451C68.4425 190.699 61.5046 187.302 54.9491 183.359C56.6883 182.07 58.3894 180.723 60.033 179.337C100.017 198.039 143.46 198.039 182.966 179.337C184.629 180.723 186.33 182.07 188.05 183.359C181.475 187.321 174.518 190.718 167.275 193.471C171.078 201.084 175.474 208.346 180.443 215.158C200.512 208.912 220.924 199.366 241.967 183.632C247.013 130.203 233.347 83.8789 205.844 42.8065ZM81.1334 155.287C69.1307 155.287 59.2875 144.082 59.2875 130.437C59.2875 116.792 68.9205 105.567 81.1334 105.567C93.3467 105.567 103.19 116.772 102.979 130.437C102.998 144.082 93.3467 155.287 81.1334 155.287ZM161.866 155.287C149.863 155.287 140.02 144.082 140.02 130.437C140.02 116.792 149.653 105.567 161.866 105.567C174.079 105.567 183.922 116.772 183.712 130.437C183.712 144.082 174.079 155.287 161.866 155.287Z" fill="url(#paint1_linear_212_3)"/>
<defs>
<linearGradient id="paint0_linear_212_3" x1="122" y1="44" x2="122" y2="189" gradientUnits="userSpaceOnUse">
<stop stop-color="#7C86F6"/>
<stop offset="1" stop-color="#616CE9"/>
</linearGradient>
<linearGradient id="paint1_linear_212_3" x1="122" y1="44" x2="122" y2="189" gradientUnits="userSpaceOnUse">
<stop stop-color="#7C86F6"/>
<stop offset="1" stop-color="#616CE9"/>
</linearGradient>
</defs>
</svg>
