<svg width="720" height="560" viewBox="0 0 720 560" fill="none" xmlns="http://www.w3.org/2000/svg">
<path d="M264.927 225.91C264.927 262.029 247.326 294.049 220.221 313.837C202.188 327.046 179.939 334.827 155.879 334.827C95.64 334.827 46.8145 286.06 46.8145 225.91C46.8145 201.623 54.765 179.192 68.2458 161.085C88.1062 134.316 119.973 116.977 155.879 116.977C216.117 116.977 264.927 165.744 264.927 225.91Z" fill="white" stroke="#371945" stroke-width="6" stroke-miterlimit="10"/>
<path d="M123 122.5C78.0004 169 139.501 301 244 290" stroke="#371A45" stroke-width="6"/>
<path d="M236.843 163.567C267.988 204.008 262.522 269.617 237.019 280.905C212.815 291.615 172.308 252.663 153.602 227.687C135.36 203.336 108.928 153.704 125.999 133.147C143.744 111.79 206.483 124.134 236.843 163.567Z" fill="#1B1931" stroke="#371945" stroke-width="6" stroke-miterlimit="10"/>
<path d="M149.979 204.224C166.908 229.452 196.908 238.982 216.986 225.509C237.064 212.037 239.616 180.664 222.687 155.435C205.757 130.207 175.757 120.677 155.679 134.15C135.602 147.622 133.049 178.996 149.979 204.224Z" fill="#371A45" stroke="#371A45" stroke-width="3" stroke-miterlimit="10"/>
<path d="M179.202 232.17C179.202 246.867 169.728 259.355 156.584 263.918C153.154 265.103 149.467 265.759 145.62 265.759C131.129 265.759 118.771 256.585 114.042 243.761C120.053 249.333 128.132 252.791 137.012 252.791C140.875 252.791 144.546 252.134 147.976 250.95C161.136 246.387 170.594 233.899 170.594 219.202C170.594 215.151 169.888 211.277 168.558 207.674C175.082 213.758 179.202 222.484 179.202 232.17Z" fill="white" stroke="#371945" stroke-width="6" stroke-miterlimit="10"/>
<path d="M170.305 220.194C170.305 234.892 160.832 247.379 147.688 251.942C144.257 253.127 140.571 253.784 136.723 253.784C127.843 253.784 119.764 250.325 113.753 244.754V244.722C107.197 238.606 103.094 229.88 103.094 220.194C103.094 212.974 105.386 206.234 109.297 200.774C115.388 192.225 125.407 186.637 136.707 186.637C151.198 186.637 163.557 195.779 168.253 208.635V208.667C169.6 212.269 170.305 216.144 170.305 220.194Z" fill="white" stroke="#371945" stroke-width="5" stroke-miterlimit="10"/>
<path d="M164.791 225.045C163.06 235.132 155.895 244.722 146.021 247.652C143.168 248.5 140.122 248.964 136.916 248.964C124.894 248.964 114.635 242.432 110.708 233.291C115.693 237.261 122.409 239.727 129.767 239.727C132.973 239.727 136.018 239.262 138.872 238.414C149.788 235.164 157.642 226.278 157.642 215.808C157.642 214.159 156.135 212.429 156.969 210.556C157.851 208.587 160.319 207.77 162.275 207.37C163.685 210.428 166.186 216.992 164.791 225.045Z" fill="#CDC6D0"/>
<path d="M238.847 287.213C219.933 312.573 189.573 329.015 155.35 329.015C97.9808 329.015 51.4795 282.842 51.4795 225.91C51.4795 191.696 68.2623 161.389 94.1177 142.641C81.2782 159.788 73.7123 181.018 73.7123 204.008C73.7123 260.94 120.214 307.097 177.583 307.097C200.473 307.081 221.664 299.7 238.847 287.213Z" fill="#CDC6D0"/>
<path d="M158.844 142.625C172.453 145.091 193.98 151.463 209.946 169.618C211.965 171.908 213.761 174.245 215.363 176.583" stroke="#CDC6D0" stroke-width="5" stroke-miterlimit="10" stroke-linecap="round"/>
<path d="M224.854 201.046C227.633 201.046 229.887 199.548 229.887 197.7C229.887 195.852 227.633 194.354 224.854 194.354C222.074 194.354 219.82 195.852 219.82 197.7C219.82 199.548 222.074 201.046 224.854 201.046Z" stroke="#CDC6D0" stroke-width="5" stroke-miterlimit="10" stroke-linecap="round"/>
<path d="M149.531 517.022C153.185 504.037 156.215 485.45 152.143 464.268C151.791 462.427 151.326 460.042 150.621 457.272C150.556 457.256 150.492 457.256 150.444 457.24C148.425 456.744 146.373 456.343 144.337 455.847C143.936 455.751 143.584 455.591 143.231 455.447C141.756 455.591 140.282 455.607 138.791 455.607C134.303 455.607 130.969 451.941 130.776 447.602C130.68 445.601 131.738 443.327 133.117 441.934C134.383 440.669 136.162 439.885 137.957 439.677C138.422 439.373 138.919 439.116 139.432 438.908L79.8668 361.964C79.8668 361.964 60.1025 442.975 84.8199 469.52C85.8297 470.624 86.1022 472.209 85.5091 473.586L67.9409 514.268C67.6524 514.956 67.5722 515.693 67.6844 516.397C67.6844 516.397 67.8447 517.406 68.6142 518.318C73.3909 524.034 79.7225 528.693 86.3427 532.423C102.693 541.645 120.694 545.183 120.694 545.183C127.939 546.608 142.446 548.914 148.809 542.494C148.986 542.318 149.226 542.109 149.466 541.773C154.628 534.457 150.973 522.945 149.627 519.343C149.338 518.607 149.322 517.79 149.531 517.022Z" fill="white" stroke="#371945" stroke-width="6" stroke-miterlimit="10"/>
<path d="M346.148 343.376C346.148 343.376 344.096 345.409 341.259 347.234C311.508 366.431 277.654 379.159 242.566 384.074C238.286 406.744 234.006 429.414 229.71 452.085L193.243 449.795L177.294 448.803C177.566 448.402 177.839 447.986 178.079 447.538C179.073 445.649 179.458 443.471 178.881 441.374C178.656 440.573 178.272 439.757 177.759 439.004C177.085 437.996 176.188 437.115 175.194 436.587C173.335 435.61 171.09 435.114 169.023 435.786C168.862 435.834 168.702 435.914 168.542 435.978C166.282 434.361 163.412 433.433 160.735 433.001C158.539 432.632 156.536 432.648 154.548 433.801C153.875 434.201 153.218 434.762 152.625 435.402C152.384 435.306 152.144 435.21 151.903 435.13C150.445 434.586 149.755 434.313 149.05 433.977C145.475 432.264 140.795 432.792 138.487 436.251L124.445 431.752L111.189 427.493L87.2246 398.707V364.894L115.1 324.372L130.36 317.664C169.215 316.543 185.677 315.518 193.131 314.718C193.612 314.67 200.841 313.901 210.571 312.973C216.742 312.396 219.82 312.092 222.433 311.932C230.848 311.388 238.029 310.908 244.393 311.932C260.47 314.494 260.791 324.852 278.071 327.638C284.242 328.631 290.333 328.359 293.86 328.102C300.031 327.654 304.84 326.421 311.973 325.269C313.079 325.092 314.201 324.9 315.179 324.34C316.509 323.572 317.359 322.211 318.176 320.914C320.709 316.943 323.995 312.845 328.644 312.092C331.016 311.708 333.452 312.268 335.664 313.181C344.417 316.815 350.363 327.398 349.113 336.059C348.937 337.244 348.472 340.446 346.148 343.376Z" fill="white" stroke="#371945" stroke-width="6" stroke-miterlimit="10"/>
<path d="M342.509 341.391C329.878 349.972 312.614 359.946 290.814 368.048C271.274 375.316 253.546 379.03 239.376 380.968C235.112 403.206 230.864 425.412 226.6 447.634L174.585 444.416C174.857 444.032 175.13 443.615 175.37 443.183C175.883 442.238 176.236 441.214 176.364 440.157L212.559 442.398C212.927 436.363 213.793 428.966 215.716 420.657C216.326 418.031 217.383 413.388 218.954 409.065C221.038 403.318 225.735 393.408 237.196 383.113C253.658 373.827 267.283 367.183 276.772 362.796C287.224 357.961 298.188 353.334 313.688 344.737C318.882 341.855 323.819 338.973 328.467 336.139C328.9 335.451 334.27 326.709 330.311 319.809C329.766 318.849 328.9 317.696 327.506 316.607C328.531 316.239 332.923 314.814 337.508 316.959C342.092 319.105 343.727 323.363 344.368 325.06C347.35 332.857 343.214 340.19 342.509 341.391Z" fill="#CDC6D0"/>
<path d="M247.07 370.017C242.822 391.935 238.574 413.853 234.326 435.77C234.134 436.779 234.31 437.804 234.807 438.716C242.79 453.317 244.553 504.726 240.738 515.933C240.209 517.47 240.61 519.167 241.78 520.352C253.113 531.767 247.422 542.51 247.422 542.51C241.492 569.679 181.349 548.834 167.42 543.614C164.951 542.686 164.326 539.66 164.326 539.66C156.455 527.236 162.354 512.363 164.486 503.477C167.051 492.766 167.468 477.028 157.562 455.271" fill="white"/>
<path d="M247.07 370.017C242.822 391.935 238.574 413.853 234.326 435.77C234.134 436.779 234.31 437.804 234.807 438.716C242.79 453.317 244.553 504.726 240.738 515.933C240.209 517.47 240.61 519.167 241.78 520.352C253.113 531.767 247.422 542.51 247.422 542.51C241.492 569.679 181.349 548.834 167.42 543.614C164.951 542.686 164.326 539.66 164.326 539.66C156.455 527.236 162.354 512.363 164.486 503.477C167.051 492.766 167.468 477.028 157.562 455.271" stroke="#371945" stroke-width="6" stroke-miterlimit="10"/>
<path d="M147.127 510.81C147.159 511.578 147.271 512.363 147.464 513.147C148.842 518.639 151.423 531.543 146.694 539.436C146.406 539.932 146.165 540.252 146.085 540.348C144.739 542.222 137.638 546.512 120.374 543.774C116.863 543.214 113.193 542.638 108.288 540.941C96.3778 536.826 88.6837 529.99 88.6837 529.99C81.4544 523.538 72.8146 511.082 76.4533 505.606C79.05 501.684 87.3372 502.164 90.6393 502.356C97.5319 502.757 98.6861 505.158 102.196 504.55C111.061 503.013 118.466 486.714 116.671 472.401C115.148 460.266 107.39 452.629 104.857 450.195C94.1658 439.965 81.2941 438.86 77.5914 438.668C75.6839 429.318 75.1709 421.489 75.0747 415.982C74.8503 403.83 74.8183 394.8 80.8774 387.004C81.5185 386.187 84.2436 382.489 87.2411 381.144C100.033 375.444 123.275 393.808 146.662 426.26C174.938 429.414 184.716 437.9 188.034 445.681C193.051 457.464 182.68 466.205 183.385 491.646C183.69 502.452 184.075 516.093 193.147 527.396C208.536 546.576 240.178 548.145 244.057 542.029C244.458 541.405 245.227 539.66 245.259 539.676C245.307 539.692 243.384 544.783 241.733 547.153C240.498 548.93 235.353 554.982 206.404 550.643C185.565 547.521 168.863 545.007 164.791 534.152C163.733 531.351 163.942 528.021 164.326 521.376C164.936 511.066 167.084 508.648 168.51 499.779C170.466 487.627 168.574 478.645 165.945 466.109C163.781 455.751 162.146 454.262 160.832 454.038C157.209 453.397 151.775 461.338 150.14 466.574C149.211 469.52 148.377 470 149.852 479.958C150.637 485.29 149.98 490.733 149.243 496.016C148.57 500.787 146.903 506.023 147.127 510.81Z" fill="#CDC6D0"/>
<path d="M120.614 316.527C120.614 316.527 13.4574 332.969 4 398.243C4.68926 401.269 7.23794 410.634 15.8137 415.357C24.5657 420.176 34.1834 417.439 37.9984 416.35C59.6221 410.186 57.5382 391.759 83.57 376.805C94.0051 370.801 95.6081 373.043 104.504 367.135C120.021 356.84 127.426 341.903 131.29 330.424L120.614 316.527Z" fill="white" stroke="#371945" stroke-width="6" stroke-miterlimit="10"/>
<path d="M120.598 447.618C144.273 456.071 165.576 456.295 189.236 447.618C169.712 462.747 140.186 462.491 120.598 447.618Z" fill="#371945"/>
<path d="M143.364 543.39C146.051 536.73 132.114 524.845 112.235 516.843C92.3564 508.841 74.0631 507.753 71.3761 514.412C68.689 521.072 82.6257 532.957 102.504 540.959C122.383 548.961 140.676 550.049 143.364 543.39Z" fill="white" stroke="#371945" stroke-width="5" stroke-miterlimit="10"/>
<path d="M84.5 470.896C84.5 470.896 133.999 470.945 154.084 497.201" stroke="#371945" stroke-width="5" stroke-miterlimit="10"/>
<path d="M165.978 484.041C165.978 484.041 201.354 510.682 240.466 490.317" stroke="#371945" stroke-width="5" stroke-miterlimit="10"/>
<path d="M286.069 327.286C286.069 327.286 300.768 348.707 290.221 373.027" stroke="#371945" stroke-width="5" stroke-miterlimit="10"/>
<path d="M29.6787 352.966C29.6787 352.966 63.0519 356.76 67.6524 391.791L29.6787 352.966Z" fill="white"/>
<path d="M29.6787 352.966C29.6787 352.966 63.0519 356.76 67.6524 391.791" stroke="#371945" stroke-width="6" stroke-miterlimit="10"/>
<path d="M30.6084 386.699C30.6084 386.699 29.5184 398.643 39.0078 400.596L31.1694 418.479C31.1694 418.479 37.6933 423.731 44.6501 410.042C48.2567 406.168 51.8633 402.293 55.47 398.419" fill="white"/>
<path d="M30.6085 386.699C31.1535 391.887 33.5579 398.099 39.3766 398.771L41.4765 399.187C39.072 406.056 36.299 412.796 33.3495 419.44L32.6603 416.622C37.1966 418.752 40.8673 412.556 43.0794 409.258C46.8623 405.319 51.1582 401.829 55.4701 398.419C54.0115 400.676 52.4406 402.822 50.8376 404.967C49.2347 407.096 47.5997 409.194 45.9166 411.243L46.1891 410.843C43.8328 416.574 38.3988 424.019 31.2016 421.217C30.352 420.961 29.0056 419.84 28.2041 419.28L28.9575 417.519C31.5543 411.547 34.2792 405.623 37.2767 399.844L38.6072 402.421C31.7145 400.932 28.9415 392.831 30.6085 386.699Z" fill="#371945"/>
<path d="M84.9004 529.573L97.9483 512.571L112.872 521.072L99.8238 538.075L115.853 545.343L130.055 527.748" fill="white"/>
<path d="M84.9004 529.573L97.9483 512.571L112.872 521.072L99.8238 538.075L115.853 545.343L130.055 527.748" stroke="#371945" stroke-width="4" stroke-miterlimit="10"/>
<path d="M212.35 351.045V426.661C212.061 428.87 211.003 433.801 205.922 438.428C197.715 445.921 185.564 446.641 183.465 446.737C156.118 445.601 128.772 444.448 101.41 443.311C89.3079 443.311 79.4658 435.866 79.4658 426.661V415.87C83.4251 420.225 90.0452 423.058 97.5149 423.058H174.616C186.719 423.058 196.561 415.614 196.561 406.408V335.067C205.681 337.084 212.35 343.472 212.35 351.045Z" fill="#CDC6D0"/>
<path d="M200.601 315.855V415.053C200.601 427.125 190.647 436.891 178.384 436.891H127.282C115.036 436.891 105.098 427.125 105.098 415.053V315.855C105.098 303.783 115.036 294.017 127.282 294.017H178.384C190.647 294.001 200.601 303.783 200.601 315.855Z" fill="white" stroke="#371945" stroke-width="6" stroke-miterlimit="10"/>
<path d="M173.639 315.855V415.053C173.639 427.125 163.685 436.891 151.422 436.891H100.32C92.7706 436.891 86.0703 433.177 82.0469 427.461C79.5624 423.939 78.1357 419.664 78.1357 415.037V315.855C78.1357 303.783 88.074 294.017 100.32 294.017H151.422C163.685 294.001 173.639 303.783 173.639 315.855Z" fill="white" stroke="#371945" stroke-width="6" stroke-miterlimit="10"/>
<path d="M149.355 342.96C142.783 345.537 134.96 343.216 131.867 337.805C130.232 334.971 130.232 331.881 131.53 329.191C131.61 329.431 131.722 329.655 131.867 329.88C134.96 335.307 142.783 337.612 149.355 335.051C152.497 333.818 154.773 331.689 155.943 329.207C158.443 334.49 155.606 340.526 149.355 342.96Z" fill="#CDC6D0"/>
<path d="M155.719 328.567C154.565 331.464 152.337 333.962 149.243 335.403C142.799 338.381 135.105 335.707 132.075 329.367C131.931 329.095 131.835 328.823 131.739 328.551C129.254 322.419 132.043 315.358 138.183 312.477C144.626 309.499 152.289 312.172 155.35 318.512C156.969 321.794 156.969 325.413 155.719 328.567Z" fill="#3A266F" stroke="#371A45" stroke-width="4" stroke-miterlimit="10"/>
<path d="M177.357 392.623C193.435 401.829 207.332 405.255 216.597 406.68C237.211 409.866 248.496 409.146 251.606 401.557C253.465 397.01 251.766 391.118 249.794 386.491C221.278 388.028 215.331 387.42 215.331 387.42C207.381 386.619 195.631 384.154 181.397 376.165C180.788 376.229 175.049 376.885 173.591 381.288C172.212 385.435 173.799 390.574 177.357 392.623Z" fill="white" stroke="#371945" stroke-width="5" stroke-miterlimit="10"/>
<path d="M86.1504 391.454H122.713L130.44 408.681H165.849" stroke="#CDC6D0" stroke-width="5" stroke-miterlimit="10"/>
<path d="M76.8535 384.922H118.482L127.298 402.133H167.596" stroke="#371945" stroke-width="5" stroke-miterlimit="10"/>
<path d="M504.291 501.647C508.181 483.558 511.416 457.684 507.074 428.186C506.695 425.624 506.2 422.292 505.442 418.45C505.384 418.435 505.311 418.435 505.253 418.421C503.096 417.722 500.911 417.169 498.754 416.485C498.332 416.354 497.953 416.136 497.574 415.918C496.001 416.122 494.427 416.151 492.853 416.151C488.074 416.151 484.519 411.043 484.315 405.003C484.213 402.224 485.335 399.051 486.821 397.116C488.162 395.37 490.071 394.249 491.979 393.973C492.475 393.551 492.999 393.187 493.553 392.896L430.115 285.745C430.115 285.745 409.061 398.571 435.389 435.535C436.467 437.077 436.759 439.275 436.117 441.196L417.409 497.849C417.103 498.809 417.016 499.828 417.133 500.817C417.133 500.817 417.307 502.229 418.123 503.495C423.208 511.455 429.954 517.946 437.006 523.141C454.418 535.991 473.592 540.91 473.592 540.91C481.314 542.889 496.758 546.105 503.533 537.17C503.723 536.922 503.97 536.631 504.233 536.166C509.726 525.979 505.835 509.942 504.408 504.921C504.087 503.859 504.058 502.709 504.291 501.647Z" fill="white" stroke="#371945" stroke-width="6" stroke-miterlimit="10"/>
<path d="M713.677 259.813C713.677 259.813 711.477 262.636 708.475 265.182C676.785 291.93 640.739 309.626 603.366 316.48C598.806 348.059 594.246 379.624 589.671 411.203L550.841 408.016L533.852 406.633C534.144 406.08 534.435 405.498 534.683 404.872C535.747 402.238 536.155 399.212 535.543 396.286C535.309 395.166 534.887 394.031 534.348 392.983C533.634 391.571 532.672 390.349 531.623 389.621C529.642 388.268 527.252 387.57 525.052 388.501C524.877 388.574 524.717 388.675 524.542 388.763C522.138 386.507 519.078 385.212 516.223 384.615C513.877 384.106 511.75 384.121 509.637 385.736C508.923 386.289 508.224 387.075 507.583 387.962C507.32 387.831 507.073 387.7 506.81 387.584C505.251 386.827 504.523 386.449 503.765 385.983C499.962 383.597 494.979 384.339 492.517 389.156L477.568 382.884L463.45 376.946L437.923 336.854V289.762L467.602 233.327L483.848 223.984C525.227 222.427 542.755 220.986 550.696 219.88C551.205 219.808 558.913 218.731 569.258 217.45C575.829 216.635 579.107 216.228 581.89 215.995C590.851 215.224 598.5 214.583 605.29 215.995C622.424 219.575 622.759 233.982 641.161 237.867C647.732 239.25 654.216 238.871 657.975 238.522C664.561 237.896 669.66 236.179 677.266 234.564C678.446 234.317 679.641 234.055 680.675 233.269C682.089 232.192 682.992 230.3 683.866 228.495C686.562 222.965 690.059 217.261 695.012 216.199C697.533 215.66 700.141 216.446 702.501 217.727C711.826 222.791 718.15 237.518 716.824 249.597C716.649 251.285 716.154 255.738 713.677 259.813Z" fill="white" stroke="#371945" stroke-width="6" stroke-miterlimit="10"/>
<path d="M709.801 257.048C696.353 268.995 677.966 282.893 654.756 294.171C633.949 304.285 615.067 309.466 599.986 312.173C595.441 343.141 590.924 374.079 586.378 405.018L530.982 400.536C531.274 399.983 531.565 399.415 531.813 398.804C532.352 397.494 532.731 396.054 532.862 394.584L571.4 397.713C571.793 389.316 572.711 378.998 574.751 367.443C575.392 363.791 576.529 357.329 578.19 351.305C580.419 343.301 585.416 329.49 597.626 315.171C615.154 302.233 629.666 292.978 639.777 286.866C650.909 280.128 662.594 273.681 679.088 261.719C684.624 257.702 689.869 253.701 694.823 249.742C695.29 248.782 701.001 236.601 696.79 226.997C696.207 225.658 695.29 224.057 693.803 222.529C694.896 222.02 699.573 220.04 704.454 223.009C709.335 225.992 711.069 231.93 711.768 234.287C714.945 245.173 710.544 255.389 709.801 257.048Z" fill="#CDC6D0"/>
<path d="M608.161 296.907C603.644 327.438 599.112 357.955 594.596 388.486C594.392 389.898 594.567 391.324 595.106 392.605C603.6 412.935 605.48 484.548 601.415 500.134C600.861 502.273 601.269 504.645 602.522 506.289C614.586 522.181 608.539 537.141 608.539 537.141C602.23 574.977 538.18 545.96 523.348 538.683C520.725 537.403 520.055 533.168 520.055 533.168C511.677 515.865 517.957 495.157 520.23 482.787C522.969 467.885 523.406 445.954 512.857 415.641" fill="white"/>
<path d="M608.161 296.907C603.644 327.438 599.112 357.955 594.596 388.486C594.392 389.898 594.567 391.324 595.106 392.605C603.6 412.935 605.48 484.548 601.415 500.134C600.861 502.273 601.269 504.645 602.522 506.289C614.586 522.181 608.539 537.141 608.539 537.141C602.23 574.977 538.18 545.96 523.348 538.683C520.725 537.403 520.055 533.168 520.055 533.168C511.677 515.865 517.957 495.157 520.23 482.787C522.969 467.885 523.406 445.954 512.857 415.641" stroke="#371945" stroke-width="6" stroke-miterlimit="10"/>
<path d="M501.712 492.988C501.755 494.065 501.857 495.142 502.076 496.233C503.548 503.888 506.287 521.846 501.26 532.848C500.954 533.532 500.692 533.983 500.619 534.128C499.177 536.733 491.615 542.714 473.227 538.902C469.483 538.13 465.578 537.315 460.362 534.958C447.686 529.224 439.483 519.707 439.483 519.707C431.775 510.728 422.581 493.381 426.457 485.741C429.225 480.284 438.055 480.953 441.552 481.215C448.895 481.768 450.134 485.115 453.864 484.271C463.305 482.132 471.187 459.445 469.279 439.508C467.661 422.612 459.4 411.96 456.69 408.583C445.311 394.336 431.586 392.794 427.652 392.532C425.612 379.507 425.073 368.608 424.971 360.938C424.738 343.999 424.694 331.44 431.149 320.584C431.819 319.449 434.733 314.297 437.938 312.435C451.561 304.503 476.316 330.087 501.216 375.273C531.333 379.667 541.75 391.484 545.276 402.311C550.624 418.727 539.565 430.907 540.323 466.328C540.643 481.39 541.051 500.366 550.726 516.127C567.117 542.831 600.803 545.028 604.941 536.5C605.363 535.642 606.194 533.197 606.223 533.211C606.267 533.241 604.227 540.328 602.479 543.617C601.153 546.105 595.689 554.516 564.844 548.463C542.654 544.111 524.864 540.619 520.536 525.499C519.414 521.599 519.618 516.971 520.041 507.715C520.682 493.352 522.984 489.99 524.499 477.65C526.568 460.725 524.572 448.21 521.775 430.761C519.458 416.325 517.739 414.273 516.326 413.953C512.464 413.066 506.68 424.111 504.932 431.416C503.941 435.52 503.067 436.19 504.626 450.058C505.471 457.48 504.771 465.062 503.97 472.425C503.256 479.047 501.479 486.323 501.712 492.988Z" fill="#CDC6D0"/>
<path d="M473.475 222.427C473.475 222.427 359.347 245.318 349.279 336.228C350.008 340.448 352.732 353.473 361.853 360.065C371.164 366.788 381.421 362.961 385.486 361.448C408.507 352.862 406.292 327.205 434.019 306.366C445.136 298.013 446.841 301.127 456.311 292.905C472.834 278.571 480.731 257.761 484.84 241.782L473.475 222.427Z" fill="white" stroke="#371945" stroke-width="6" stroke-miterlimit="10"/>
<path d="M473.475 404.989C499.031 418.392 521.09 418.697 546.558 404.989C525.752 424.504 494.383 424.14 473.475 404.989Z" fill="#371945"/>
<path d="M497.071 539.804C501.804 531.555 488.753 515.201 467.92 503.277C447.088 491.353 426.363 488.374 421.63 496.623C416.896 504.872 429.948 521.226 450.78 533.15C471.613 545.074 492.338 548.053 497.071 539.804Z" fill="white" stroke="#371945" stroke-width="5" stroke-miterlimit="10"/>
<path d="M435.024 437.412C435.024 437.412 487.739 437.47 509.128 474.041" stroke="#371945" stroke-width="6" stroke-miterlimit="10"/>
<path d="M521.79 455.719C521.79 455.719 559.468 492.814 601.11 464.465" stroke="#371945" stroke-width="6" stroke-miterlimit="10"/>
<path d="M649.686 237.416C649.686 237.416 665.334 267.249 654.1 301.113" stroke="#371945" stroke-width="5" stroke-miterlimit="10"/>
<path d="M376.628 273.186C376.628 273.186 412.179 278.469 417.06 327.264L376.628 273.186Z" fill="white"/>
<path d="M376.628 273.186C376.628 273.186 412.179 278.469 417.06 327.264" stroke="#371945" stroke-width="6" stroke-miterlimit="10"/>
<path d="M377.618 320.148C377.618 320.148 376.452 336.781 386.564 339.502L378.215 364.416C378.215 364.416 385.165 371.736 392.582 352.672C396.428 347.273 400.275 341.874 404.107 336.49" fill="white"/>
<path d="M377.618 320.147C378.317 326.682 379.687 335.835 387.001 337.843L388.677 338.251C387.934 340.943 387.132 343.679 386.316 346.328C384.408 352.614 382.412 358.872 380.255 365.071L379.774 362.903C379.803 362.932 380.109 363.179 380.328 363.281C385.238 365.362 389.478 355.306 391.241 351.785C395.379 346.546 399.604 341.394 404.106 336.446C401.236 341.743 396.574 349.442 394.053 353.211C391.838 359.163 388.152 368.913 380.124 367.705C378.39 367.371 377.006 366.308 375.768 364.998L376.176 363.703C378.9 355.379 381.814 347.113 384.947 338.935L386.127 341.132C377.574 338.309 376.38 327.773 377.618 320.147Z" fill="#371945"/>
<path d="M435.446 519.125L449.346 495.433L465.242 507.279L451.342 530.97L468.418 541.084L483.542 516.593" fill="white"/>
<path d="M435.446 519.125L449.346 495.433L465.242 507.279L451.342 530.97L468.418 541.084L483.542 516.593" stroke="#371945" stroke-width="4" stroke-miterlimit="10"/>
<path d="M453.069 218.144C484.904 241.695 524.576 247.09 559.681 236.155C583.068 228.919 604.435 214.43 620.112 193.28C659.384 140.319 648.243 65.6316 595.234 26.4229C573.835 10.5889 548.893 2.96808 524.144 3.0001C487.613 3.01611 451.579 19.7147 428.16 51.2866C388.92 104.232 400.06 178.919 453.069 218.144Z" fill="white" stroke="#371945" stroke-width="6" stroke-miterlimit="10"/>
<path d="M416.458 152.823C431.798 206.568 493.158 244.528 519.719 229.463C544.917 215.166 537.015 154.183 527.205 121.443C517.635 89.5347 491.139 33.9636 461.901 35.5646C431.509 37.2297 401.502 100.422 416.458 152.823Z" fill="#1B1931" stroke="#371945" stroke-width="6" stroke-miterlimit="10"/>
<path d="M448 29.2189C507.106 6.68838 587.289 161.398 523.601 237" stroke="#371A45" stroke-width="5"/>
<path d="M448 29.2189C507.106 6.68838 587.289 161.398 523.601 237" stroke="#371A45" stroke-width="5"/>
<path d="M427.133 160.886C445.878 188.819 479.095 199.371 501.326 184.453C523.556 169.536 526.382 134.799 507.637 106.866C488.893 78.9325 455.676 68.3808 433.445 83.2979C411.215 98.2151 408.389 132.952 427.133 160.886Z" fill="#371A45" stroke="#371A45" stroke-width="3" stroke-miterlimit="10"/>
<path d="M514.462 146.867C527.413 156.441 544.581 156.265 557.18 147.667C560.466 145.426 563.431 142.608 565.948 139.23C575.389 126.502 575.357 109.659 567.15 97.1235C568.144 106.041 565.932 115.391 560.145 123.188C557.629 126.582 554.663 129.384 551.377 131.625C538.794 140.223 521.611 140.399 508.659 130.825C505.084 128.183 502.135 125.029 499.843 121.523C500.933 131.257 505.934 140.559 514.462 146.867Z" fill="white" stroke="#371945" stroke-width="6" stroke-miterlimit="10"/>
<path d="M509.717 131.241C522.669 140.815 539.836 140.639 552.436 132.042C555.722 129.8 558.703 126.982 561.204 123.604C566.99 115.807 569.202 106.457 568.208 97.5397L568.176 97.5238C567.054 87.7736 562.053 78.4877 553.526 72.1797C547.162 67.4728 539.724 65.1033 532.367 64.9752C520.858 64.751 509.429 69.9223 502.055 79.8646C492.614 92.5926 492.614 109.419 500.869 121.939L500.901 121.955C503.193 125.445 506.159 128.599 509.717 131.241Z" fill="white" stroke="#371945" stroke-width="6" stroke-miterlimit="10"/>
<path d="M517.588 129.56C527.606 134.603 540.718 134.555 549.743 127.799C552.34 125.846 554.744 123.46 556.828 120.642C564.666 110.076 565.596 96.8033 560.098 87.3893C560.354 94.3697 558.142 101.863 553.349 108.331C551.266 111.148 548.861 113.534 546.264 115.487C536.294 122.964 523.326 124.068 514.109 117.248C512.667 116.175 512.106 113.726 509.926 113.246C507.617 112.733 505.293 114.366 503.658 115.839C505.421 119.057 509.589 125.541 517.588 129.56Z" fill="#CDC6D0"/>
<path d="M524.096 235.163C558.767 235.067 593.038 219.088 615.351 189.005C652.748 138.59 642.377 67.6009 592.205 30.4895C562.069 8.18738 524.416 3.17622 491.043 13.6788C514.51 13.5828 538.169 20.7553 558.415 35.7408C608.587 72.8522 618.942 143.809 581.545 194.241C566.606 214.398 546.296 228.214 524.096 235.163Z" fill="#CDC6D0"/>
<path d="M437.44 123.604C437.873 109.787 440.983 87.5975 456.596 69.1378C458.567 66.8004 460.603 64.687 462.687 62.7498" stroke="#CDC6D0" stroke-width="5" stroke-miterlimit="10" stroke-linecap="round"/>
<path d="M577.201 295.232V382.423C576.864 384.969 575.598 390.653 569.587 396C559.857 404.646 545.463 405.462 542.962 405.574C510.551 404.261 478.123 402.932 445.712 401.62C431.365 401.62 419.712 393.038 419.712 382.423V369.984C424.409 374.995 432.263 378.261 441.095 378.261H532.495C546.841 378.261 558.495 369.679 558.495 359.065V276.821C569.298 279.142 577.201 286.507 577.201 295.232Z" fill="#CDC6D0"/>
<path d="M563.271 254.647V369.023C563.271 382.936 551.458 394.207 536.935 394.207H476.36C461.837 394.207 450.056 382.936 450.056 369.023V254.647C450.056 240.734 461.837 229.463 476.36 229.463H536.935C551.458 229.463 563.271 240.734 563.271 254.647Z" fill="white" stroke="#371945" stroke-width="6" stroke-miterlimit="10"/>
<path d="M531.325 254.647V369.023C531.325 382.936 519.511 394.207 504.989 394.207H444.414C435.453 394.207 427.519 389.932 422.758 383.336C419.825 379.27 418.109 374.338 418.109 369.023V254.647C418.109 240.734 429.891 229.463 444.414 229.463H504.989C519.511 229.463 531.325 240.734 531.325 254.647Z" fill="white" stroke="#371945" stroke-width="6" stroke-miterlimit="10"/>
<path d="M502.52 285.915C494.73 288.892 485.449 286.203 481.794 279.975C479.87 276.709 479.87 273.155 481.393 270.049C481.489 270.321 481.634 270.577 481.794 270.849C485.449 277.109 494.73 279.767 502.52 276.821C506.239 275.396 508.948 272.946 510.342 270.081C513.308 276.148 509.942 283.113 502.52 285.915Z" fill="#CDC6D0"/>
<path d="M510.07 269.312C508.691 272.658 506.046 275.524 502.392 277.189C494.746 280.631 485.625 277.525 482.034 270.225C481.874 269.904 481.746 269.6 481.65 269.28C478.716 262.22 482.002 254.071 489.296 250.756C496.942 247.314 506.014 250.42 509.653 257.721C511.545 261.499 511.545 265.678 510.07 269.312Z" fill="#3A266F" stroke="#371A45" stroke-width="4" stroke-miterlimit="10"/>
<path d="M535.717 343.167C554.76 353.781 571.254 357.736 582.234 359.385C606.679 363.051 620.047 362.235 623.734 353.477C625.93 348.242 623.927 341.438 621.586 336.106C587.78 337.867 580.743 337.179 580.743 337.179C571.318 336.25 557.388 333.417 540.526 324.195C539.804 324.259 532.992 325.027 531.277 330.102C529.626 334.889 531.501 340.813 535.717 343.167Z" fill="white" stroke="#371945" stroke-width="6" stroke-miterlimit="10"/>
<path d="M427.614 341.822H470.942L480.111 361.674H522.076" stroke="#CDC6D0" stroke-width="5" stroke-miterlimit="10"/>
<path d="M416.603 334.281H465.941L476.376 354.15H524.16" stroke="#371945" stroke-width="5" stroke-miterlimit="10"/>
</svg>
