<svg width="1133" height="1139" viewBox="0 0 1133 1139" fill="none" xmlns="http://www.w3.org/2000/svg">
<path d="M597.148 4.792C926.336 343.774 772.288 784.017 652.592 953.494C642.691 965.021 566.298 961.903 529.34 958.904C234.097 474.259 454.841 127.866 597.148 4.792Z" fill="white"/>
<path d="M588.722 792.603C612.131 747.076 645.129 647.035 589.852 611.089C587.26 608.043 528.693 652.632 588.722 792.603Z" fill="#7876FE"/>
<path d="M595.456 8.20218C841.164 287.048 718.808 756.963 626.916 957.065L635.965 959.212L653.448 953.525L715.784 840.073L758.87 741.034L772.474 682.185L783.841 642.31L794.747 564.09L797.998 488.447L795.576 452.427L792.75 408.217L789.477 382.771L773.819 317.31L762.291 279.849L743.246 221.21L716.164 165.471L698.22 132.813L683.387 109.983L661.805 78.4517L626.386 33.7469L604.067 11.3782L600.009 8.92332L595.796 3.97321L593.511 5.91752L595.456 8.20218Z" fill="#D9D9D9"/>
<path d="M692.745 131.779C637.776 94.9612 528.025 115.923 487.695 130.766C502.838 96.87 588.724 9.54952 593.294 5.66092C616.383 9.64738 697.314 127.89 692.745 131.779Z" fill="#7876FE"/>
<path d="M432.224 771.496C392.287 777.646 351.342 843.611 335.862 875.825C326.141 864.402 316.964 775.698 319.744 741.162C324.022 696.814 401.312 648.766 401.563 654.462C401.814 660.157 430.604 769.592 432.224 771.496Z" fill="#7876FE"/>
<path d="M840.822 877.448C813.738 819.084 765.747 784.859 745.137 775.043L782.075 651.034C791.705 657.721 817.353 677.212 842.908 701.686C882.882 758.533 858.173 842.547 840.822 877.448Z" fill="#7876FE"/>
<path d="M620.701 111.892C617.667 112.143 614.428 111.744 611.309 110.921L620.701 111.892C637.711 110.486 648.328 88.6883 595.894 7.17263C596.425 4.09408 613.09 21.2075 621.356 30.149L657.974 73.1769L691.853 123.788L695.248 130.091L674.119 123.779L642.264 114.121L620.701 111.892Z" fill="#5552F9"/>
<path d="M483.831 134.712C519.74 117.502 612.479 92.8543 696.163 131.938" stroke="black" stroke-width="5"/>
<path d="M852.313 742.389C860.432 816.474 809.011 810.392 782.285 798.09L819.122 841.376L840.231 875.981L851.73 848.023L861.964 799.725L859.991 746.887L856.492 728.448C854.304 726.632 850.406 726.877 852.313 742.389Z" fill="#5552F9"/>
<path d="M391.746 793.809C367.299 809.007 313.546 821.659 322.856 750.988C321.191 745.015 320.844 741.772 320.906 740.159C322.005 738.971 320.999 737.751 320.906 740.159C320.882 740.185 320.856 740.212 320.829 740.239L319.819 759.765L319.798 806.217L327.74 850.17L337.369 874.853L357.344 839.479L391.746 793.809Z" fill="#5552F9"/>
<path d="M467.173 857.307C526.259 875.305 657.568 898.808 710.112 848.839" stroke="black" stroke-width="5"/>
<path d="M433.903 772.693C416.158 775.758 372.153 800.426 338.093 874.583C335.38 876.892 319.306 818.529 318.179 769.412C317.725 749.59 322.342 728.241 329.215 716.031C349.078 680.744 398.152 652.768 400.42 655.434" stroke="black" stroke-width="5"/>
<path d="M588.665 793.308C611.801 748.232 644.387 648.323 589.641 609.299C586.725 605.872 525.59 655.93 588.665 793.308Z" stroke="black" stroke-width="5"/>
<path d="M651.6 954.441C940.581 505.243 734.589 133.377 595.471 3.59303C246.056 329.316 403.742 774.288 526.262 956.058C566.393 968.652 626.542 960.228 651.6 954.441Z" stroke="black" stroke-width="5"/>
<path d="M743.023 774.873C756.245 778.065 801.175 801.544 840.441 877.772C843.107 875.503 895.575 761.257 832.101 690.53C826.268 683.676 781.581 652.768 780.666 650.921" stroke="black" stroke-width="5"/>
<circle cx="586.901" cy="356.889" r="50" transform="rotate(-40.3986 586.901 356.889)" fill="black"/>
<circle cx="585.435" cy="357.48" r="65.5" transform="rotate(-40.3986 585.435 357.48)" stroke="black" stroke-width="4"/>
<circle cx="586.139" cy="357.537" r="49" transform="rotate(-40.3986 586.139 357.537)" stroke="black" stroke-width="4"/>
</svg>
