<svg width="813" height="1214" viewBox="0 0 813 1214" fill="none" xmlns="http://www.w3.org/2000/svg">
<path d="M310.927 552.91C310.927 589.029 293.326 621.049 266.221 640.837C248.188 654.046 225.939 661.827 201.879 661.827C141.64 661.827 92.8145 613.06 92.8145 552.91C92.8145 528.623 100.765 506.192 114.246 488.085C134.106 461.316 165.973 443.977 201.879 443.977C262.117 443.977 310.927 492.744 310.927 552.91Z" fill="white" stroke="#371945" stroke-width="6" stroke-miterlimit="10"/>
<path d="M169 449.5C124 496 185.501 628 290 617" stroke="#371A45" stroke-width="6"/>
<path d="M282.843 490.567C313.988 531.008 308.522 596.617 283.019 607.905C258.815 618.615 218.308 579.663 199.602 554.687C181.36 530.336 154.928 480.704 171.999 460.147C189.744 438.79 252.483 451.134 282.843 490.567Z" fill="#1B1931" stroke="#371945" stroke-width="6" stroke-miterlimit="10"/>
<path d="M195.979 531.224C212.908 556.452 242.908 565.982 262.986 552.509C283.064 539.037 285.616 507.664 268.687 482.435C251.757 457.207 221.757 447.677 201.679 461.15C181.602 474.622 179.049 505.996 195.979 531.224Z" fill="#371A45" stroke="#371A45" stroke-width="3" stroke-miterlimit="10"/>
<path d="M225.202 559.17C225.202 573.867 215.728 586.355 202.584 590.918C199.154 592.103 195.467 592.759 191.62 592.759C177.129 592.759 164.771 583.585 160.042 570.761C166.053 576.333 174.132 579.791 183.012 579.791C186.875 579.791 190.546 579.134 193.976 577.95C207.136 573.387 216.594 560.899 216.594 546.202C216.594 542.151 215.888 538.277 214.558 534.674C221.082 540.758 225.202 549.484 225.202 559.17Z" fill="white" stroke="#371945" stroke-width="6" stroke-miterlimit="10"/>
<path d="M216.305 547.194C216.305 561.892 206.832 574.379 193.688 578.942C190.257 580.127 186.571 580.784 182.723 580.784C173.843 580.784 165.764 577.325 159.753 571.754V571.722C153.197 565.606 149.094 556.88 149.094 547.194C149.094 539.974 151.386 533.234 155.297 527.774C161.388 519.225 171.407 513.637 182.707 513.637C197.198 513.637 209.557 522.779 214.253 535.635V535.667C215.6 539.269 216.305 543.144 216.305 547.194Z" fill="white" stroke="#371945" stroke-width="5" stroke-miterlimit="10"/>
<path d="M210.791 552.045C209.06 562.132 201.895 571.722 192.021 574.652C189.168 575.5 186.122 575.964 182.916 575.964C170.894 575.964 160.635 569.432 156.708 560.291C161.693 564.261 168.409 566.727 175.767 566.727C178.973 566.727 182.018 566.262 184.872 565.414C195.788 562.164 203.642 553.278 203.642 542.808C203.642 541.159 202.135 539.429 202.969 537.556C203.851 535.587 206.319 534.77 208.275 534.37C209.685 537.428 212.186 543.992 210.791 552.045Z" fill="#CDC6D0"/>
<path d="M284.847 614.213C265.933 639.573 235.573 656.015 201.35 656.015C143.981 656.015 97.4795 609.842 97.4795 552.91C97.4795 518.696 114.262 488.389 140.118 469.641C127.278 486.788 119.712 508.018 119.712 531.008C119.712 587.94 166.214 634.097 223.583 634.097C246.473 634.081 267.664 626.7 284.847 614.213Z" fill="#CDC6D0"/>
<path d="M204.844 469.625C218.453 472.091 239.98 478.463 255.946 496.618C257.965 498.908 259.761 501.245 261.363 503.583" stroke="#CDC6D0" stroke-width="5" stroke-miterlimit="10" stroke-linecap="round"/>
<path d="M270.854 528.046C273.633 528.046 275.887 526.548 275.887 524.7C275.887 522.852 273.633 521.354 270.854 521.354C268.074 521.354 265.82 522.852 265.82 524.7C265.82 526.548 268.074 528.046 270.854 528.046Z" stroke="#CDC6D0" stroke-width="5" stroke-miterlimit="10" stroke-linecap="round"/>
<path d="M195.531 844.022C199.185 831.037 202.215 812.45 198.143 791.268C197.791 789.427 197.326 787.042 196.621 784.272C196.556 784.256 196.492 784.256 196.444 784.24C194.425 783.744 192.373 783.343 190.337 782.847C189.936 782.751 189.584 782.591 189.231 782.447C187.756 782.591 186.282 782.607 184.791 782.607C180.303 782.607 176.969 778.941 176.776 774.602C176.68 772.601 177.738 770.327 179.117 768.934C180.383 767.669 182.162 766.885 183.957 766.677C184.422 766.373 184.919 766.116 185.432 765.908L125.867 688.964C125.867 688.964 106.103 769.975 130.82 796.52C131.83 797.624 132.102 799.209 131.509 800.586L113.941 841.268C113.652 841.956 113.572 842.693 113.684 843.397C113.684 843.397 113.845 844.406 114.614 845.318C119.391 851.034 125.723 855.693 132.343 859.423C148.693 868.645 166.694 872.183 166.694 872.183C173.939 873.608 188.446 875.914 194.809 869.494C194.986 869.318 195.226 869.109 195.466 868.773C200.628 861.457 196.973 849.945 195.627 846.343C195.338 845.607 195.322 844.79 195.531 844.022Z" fill="white" stroke="#371945" stroke-width="6" stroke-miterlimit="10"/>
<path d="M392.148 670.376C392.148 670.376 390.096 672.409 387.259 674.234C357.508 693.431 323.654 706.159 288.566 711.074C284.286 733.744 280.006 756.414 275.71 779.085L239.243 776.795L223.294 775.803C223.566 775.402 223.839 774.986 224.079 774.538C225.073 772.649 225.458 770.471 224.881 768.374C224.656 767.573 224.272 766.757 223.759 766.004C223.085 764.996 222.188 764.115 221.194 763.587C219.335 762.61 217.09 762.114 215.023 762.786C214.862 762.834 214.702 762.914 214.542 762.978C212.282 761.361 209.412 760.433 206.735 760.001C204.539 759.632 202.536 759.648 200.548 760.801C199.875 761.201 199.218 761.762 198.625 762.402C198.384 762.306 198.144 762.21 197.903 762.13C196.445 761.586 195.755 761.313 195.05 760.977C191.475 759.264 186.795 759.792 184.487 763.251L170.445 758.752L157.189 754.493L133.225 725.707V691.894L161.1 651.372L176.36 644.664C215.215 643.543 231.677 642.518 239.131 641.718C239.612 641.67 246.841 640.901 256.571 639.973C262.742 639.396 265.82 639.092 268.433 638.932C276.848 638.388 284.029 637.908 290.393 638.932C306.47 641.494 306.791 651.852 324.071 654.638C330.242 655.631 336.333 655.359 339.86 655.102C346.031 654.654 350.84 653.421 357.973 652.269C359.079 652.092 360.201 651.9 361.179 651.34C362.509 650.572 363.359 649.211 364.176 647.914C366.709 643.943 369.995 639.845 374.644 639.092C377.016 638.708 379.452 639.268 381.664 640.181C390.417 643.815 396.363 654.398 395.113 663.059C394.937 664.244 394.472 667.446 392.148 670.376Z" fill="white" stroke="#371945" stroke-width="6" stroke-miterlimit="10"/>
<path d="M388.509 668.391C375.878 676.972 358.614 686.946 336.814 695.048C317.274 702.316 299.546 706.03 285.376 707.968C281.112 730.206 276.864 752.412 272.6 774.634L220.585 771.416C220.857 771.032 221.13 770.615 221.37 770.183C221.883 769.238 222.236 768.214 222.364 767.157L258.559 769.398C258.927 763.363 259.793 755.966 261.716 747.657C262.326 745.031 263.383 740.388 264.954 736.065C267.038 730.318 271.735 720.408 283.196 710.113C299.658 700.827 313.283 694.183 322.772 689.796C333.224 684.961 344.188 680.334 359.688 671.737C364.882 668.855 369.819 665.973 374.467 663.139C374.9 662.451 380.27 653.709 376.311 646.809C375.766 645.849 374.9 644.696 373.506 643.607C374.531 643.239 378.923 641.814 383.508 643.959C388.092 646.105 389.727 650.363 390.368 652.06C393.35 659.857 389.214 667.19 388.509 668.391Z" fill="#CDC6D0"/>
<path d="M293.07 697.017C288.822 718.935 284.574 740.853 280.326 762.77C280.134 763.779 280.31 764.804 280.807 765.716C288.79 780.317 290.553 831.726 286.738 842.933C286.209 844.47 286.61 846.167 287.78 847.352C299.113 858.767 293.422 869.51 293.422 869.51C287.492 896.679 227.349 875.834 213.42 870.614C210.951 869.686 210.326 866.66 210.326 866.66C202.455 854.236 208.354 839.363 210.486 830.477C213.051 819.766 213.468 804.028 203.562 782.271" fill="white"/>
<path d="M293.07 697.017C288.822 718.935 284.574 740.853 280.326 762.77C280.134 763.779 280.31 764.804 280.807 765.716C288.79 780.317 290.553 831.726 286.738 842.933C286.209 844.47 286.61 846.167 287.78 847.352C299.113 858.767 293.422 869.51 293.422 869.51C287.492 896.679 227.349 875.834 213.42 870.614C210.951 869.686 210.326 866.66 210.326 866.66C202.455 854.236 208.354 839.363 210.486 830.477C213.051 819.766 213.468 804.028 203.562 782.271" stroke="#371945" stroke-width="6" stroke-miterlimit="10"/>
<path d="M193.127 837.81C193.159 838.578 193.271 839.363 193.464 840.147C194.842 845.639 197.423 858.543 192.694 866.436C192.406 866.932 192.165 867.252 192.085 867.348C190.739 869.222 183.638 873.512 166.374 870.774C162.863 870.214 159.193 869.638 154.288 867.941C142.378 863.826 134.684 856.99 134.684 856.99C127.454 850.538 118.815 838.082 122.453 832.606C125.05 828.684 133.337 829.164 136.639 829.356C143.532 829.757 144.686 832.158 148.196 831.55C157.061 830.013 164.466 813.714 162.671 799.401C161.148 787.266 153.39 779.629 150.857 777.195C140.166 766.965 127.294 765.86 123.591 765.668C121.684 756.318 121.171 748.489 121.075 742.982C120.85 730.83 120.818 721.8 126.877 714.004C127.519 713.187 130.244 709.489 133.241 708.144C146.033 702.444 169.275 720.808 192.662 753.26C220.938 756.414 230.716 764.9 234.034 772.681C239.051 784.464 228.68 793.205 229.385 818.646C229.69 829.452 230.075 843.093 239.147 854.396C254.536 873.576 286.178 875.145 290.057 869.029C290.458 868.405 291.227 866.66 291.259 866.676C291.307 866.692 289.384 871.783 287.733 874.153C286.498 875.93 281.353 881.982 252.404 877.643C231.565 874.521 214.863 872.007 210.791 861.152C209.733 858.351 209.942 855.021 210.326 848.376C210.936 838.066 213.084 835.648 214.51 826.779C216.466 814.627 214.574 805.645 211.945 793.109C209.781 782.751 208.146 781.262 206.832 781.038C203.209 780.397 197.775 788.338 196.14 793.574C195.211 796.52 194.377 797 195.852 806.958C196.637 812.29 195.98 817.733 195.243 823.016C194.57 827.787 192.903 833.023 193.127 837.81Z" fill="#CDC6D0"/>
<path d="M166.614 643.527C166.614 643.527 59.4574 659.969 50 725.243C50.6893 728.269 53.2379 737.634 61.8137 742.357C70.5657 747.176 80.1834 744.439 83.9984 743.35C105.622 737.186 103.538 718.759 129.57 703.805C140.005 697.801 141.608 700.043 150.504 694.135C166.021 683.84 173.426 668.903 177.29 657.424L166.614 643.527Z" fill="white" stroke="#371945" stroke-width="6" stroke-miterlimit="10"/>
<path d="M166.598 774.618C190.273 783.071 211.576 783.295 235.236 774.618C215.712 789.747 186.186 789.491 166.598 774.618Z" fill="#371945"/>
<path d="M189.364 870.39C192.051 863.73 178.114 851.845 158.235 843.843C138.356 835.841 120.063 834.753 117.376 841.412C114.689 848.072 128.626 859.957 148.504 867.959C168.383 875.961 186.676 877.049 189.364 870.39Z" fill="white" stroke="#371945" stroke-width="5" stroke-miterlimit="10"/>
<path d="M130.5 797.896C130.5 797.896 179.999 797.945 200.084 824.201" stroke="#371945" stroke-width="5" stroke-miterlimit="10"/>
<path d="M211.978 811.041C211.978 811.041 247.354 837.682 286.466 817.317" stroke="#371945" stroke-width="5" stroke-miterlimit="10"/>
<path d="M332.069 654.286C332.069 654.286 346.768 675.707 336.221 700.027" stroke="#371945" stroke-width="5" stroke-miterlimit="10"/>
<path d="M75.6787 679.966C75.6787 679.966 109.052 683.76 113.652 718.791L75.6787 679.966Z" fill="white"/>
<path d="M75.6787 679.966C75.6787 679.966 109.052 683.76 113.652 718.791" stroke="#371945" stroke-width="6" stroke-miterlimit="10"/>
<path d="M76.6084 713.699C76.6084 713.699 75.5184 725.643 85.0078 727.596L77.1694 745.479C77.1694 745.479 83.6933 750.731 90.6501 737.042C94.2567 733.168 97.8633 729.293 101.47 725.419" fill="white"/>
<path d="M76.6085 713.699C77.1535 718.887 79.5579 725.099 85.3766 725.771L87.4765 726.187C85.072 733.056 82.299 739.796 79.3495 746.44L78.6603 743.622C83.1966 745.752 86.8673 739.556 89.0794 736.258C92.8623 732.319 97.1582 728.829 101.47 725.419C100.011 727.676 98.4406 729.822 96.8376 731.967C95.2347 734.096 93.5997 736.194 91.9166 738.243L92.1891 737.843C89.8328 743.574 84.3988 751.019 77.2016 748.217C76.352 747.961 75.0056 746.84 74.2041 746.28L74.9575 744.519C77.5543 738.547 80.2792 732.623 83.2767 726.844L84.6072 729.421C77.7145 727.932 74.9415 719.831 76.6085 713.699Z" fill="#371945"/>
<path d="M130.9 856.573L143.948 839.571L158.872 848.072L145.824 865.075L161.853 872.343L176.055 854.748" fill="white"/>
<path d="M130.9 856.573L143.948 839.571L158.872 848.072L145.824 865.075L161.853 872.343L176.055 854.748" stroke="#371945" stroke-width="4" stroke-miterlimit="10"/>
<path d="M258.35 678.045V753.661C258.061 755.87 257.003 760.801 251.922 765.428C243.715 772.921 231.564 773.641 229.465 773.737C202.118 772.601 174.772 771.448 147.41 770.311C135.308 770.311 125.466 762.866 125.466 753.661V742.87C129.425 747.225 136.045 750.058 143.515 750.058H220.616C232.719 750.058 242.561 742.614 242.561 733.408V662.067C251.681 664.084 258.35 670.472 258.35 678.045Z" fill="#CDC6D0"/>
<path d="M246.601 642.855V742.053C246.601 754.125 236.647 763.891 224.384 763.891H173.282C161.036 763.891 151.098 754.125 151.098 742.053V642.855C151.098 630.783 161.036 621.017 173.282 621.017H224.384C236.647 621.001 246.601 630.783 246.601 642.855Z" fill="white" stroke="#371945" stroke-width="6" stroke-miterlimit="10"/>
<path d="M219.639 642.855V742.053C219.639 754.125 209.685 763.891 197.422 763.891H146.32C138.771 763.891 132.07 760.177 128.047 754.461C125.562 750.939 124.136 746.664 124.136 742.037V642.855C124.136 630.783 134.074 621.017 146.32 621.017H197.422C209.685 621.001 219.639 630.783 219.639 642.855Z" fill="white" stroke="#371945" stroke-width="6" stroke-miterlimit="10"/>
<path d="M195.355 669.96C188.783 672.537 180.96 670.216 177.867 664.805C176.232 661.971 176.232 658.881 177.53 656.191C177.61 656.431 177.722 656.655 177.867 656.88C180.96 662.307 188.783 664.612 195.355 662.051C198.497 660.818 200.773 658.689 201.943 656.207C204.443 661.49 201.606 667.526 195.355 669.96Z" fill="#CDC6D0"/>
<path d="M201.719 655.567C200.565 658.464 198.337 660.962 195.243 662.403C188.799 665.381 181.105 662.707 178.075 656.367C177.931 656.095 177.835 655.823 177.739 655.551C175.254 649.419 178.043 642.358 184.183 639.477C190.626 636.499 198.289 639.172 201.35 645.512C202.969 648.794 202.969 652.413 201.719 655.567Z" fill="#3A266F" stroke="#371A45" stroke-width="4" stroke-miterlimit="10"/>
<path d="M223.357 719.623C239.435 728.829 253.332 732.255 262.597 733.68C283.211 736.866 294.496 736.146 297.606 728.557C299.465 724.01 297.766 718.118 295.794 713.491C267.278 715.028 261.331 714.42 261.331 714.42C253.381 713.619 241.631 711.154 227.397 703.165C226.788 703.229 221.049 703.885 219.591 708.288C218.212 712.435 219.799 717.574 223.357 719.623Z" fill="white" stroke="#371945" stroke-width="5" stroke-miterlimit="10"/>
<path d="M132.15 718.454H168.713L176.44 735.681H211.849" stroke="#CDC6D0" stroke-width="5" stroke-miterlimit="10"/>
<path d="M122.854 711.922H164.482L173.298 729.133H213.596" stroke="#371945" stroke-width="5" stroke-miterlimit="10"/>
<path d="M550.291 828.647C554.181 810.558 557.416 784.684 553.074 755.186C552.695 752.624 552.2 749.292 551.442 745.45C551.384 745.435 551.311 745.435 551.253 745.421C549.096 744.722 546.911 744.169 544.754 743.485C544.332 743.354 543.953 743.136 543.574 742.918C542.001 743.122 540.427 743.151 538.853 743.151C534.074 743.151 530.519 738.043 530.315 732.003C530.213 729.224 531.335 726.051 532.821 724.116C534.162 722.37 536.071 721.249 537.979 720.973C538.475 720.551 538.999 720.187 539.553 719.896L476.115 612.745C476.115 612.745 455.061 725.571 481.389 762.535C482.467 764.077 482.759 766.275 482.117 768.196L463.409 824.849C463.103 825.809 463.016 826.828 463.133 827.817C463.133 827.817 463.307 829.229 464.123 830.495C469.208 838.455 475.954 844.946 483.006 850.141C500.418 862.991 519.592 867.91 519.592 867.91C527.314 869.889 542.758 873.105 549.533 864.17C549.723 863.922 549.97 863.631 550.233 863.166C555.726 852.979 551.835 836.942 550.408 831.921C550.087 830.859 550.058 829.709 550.291 828.647Z" fill="white" stroke="#371945" stroke-width="6" stroke-miterlimit="10"/>
<path d="M759.677 586.813C759.677 586.813 757.477 589.636 754.475 592.182C722.785 618.93 686.739 636.626 649.366 643.48C644.806 675.059 640.246 706.624 635.671 738.203L596.841 735.016L579.852 733.633C580.144 733.08 580.435 732.498 580.683 731.872C581.747 729.238 582.155 726.212 581.543 723.286C581.309 722.166 580.887 721.031 580.348 719.983C579.634 718.571 578.672 717.349 577.623 716.621C575.642 715.268 573.252 714.57 571.052 715.501C570.877 715.574 570.717 715.675 570.542 715.763C568.138 713.507 565.078 712.212 562.223 711.615C559.877 711.106 557.75 711.121 555.637 712.736C554.923 713.289 554.224 714.075 553.583 714.962C553.32 714.831 553.073 714.7 552.81 714.584C551.251 713.827 550.523 713.449 549.765 712.983C545.962 710.597 540.979 711.339 538.517 716.156L523.568 709.884L509.45 703.946L483.923 663.854V616.762L513.602 560.327L529.848 550.984C571.227 549.427 588.755 547.986 596.696 546.88C597.205 546.808 604.913 545.731 615.258 544.45C621.829 543.635 625.107 543.228 627.89 542.995C636.851 542.224 644.5 541.583 651.29 542.995C668.424 546.575 668.759 560.982 687.161 564.867C693.732 566.25 700.216 565.871 703.975 565.522C710.561 564.896 715.66 563.179 723.266 561.564C724.446 561.317 725.641 561.055 726.675 560.269C728.089 559.192 728.992 557.3 729.866 555.495C732.562 549.965 736.059 544.261 741.012 543.199C743.533 542.66 746.141 543.446 748.501 544.727C757.826 549.791 764.15 564.518 762.824 576.597C762.649 578.285 762.154 582.738 759.677 586.813Z" fill="white" stroke="#371945" stroke-width="6" stroke-miterlimit="10"/>
<path d="M755.801 584.048C742.353 595.995 723.966 609.893 700.756 621.171C679.949 631.285 661.067 636.466 645.986 639.173C641.441 670.141 636.924 701.079 632.378 732.018L576.982 727.536C577.274 726.983 577.565 726.415 577.813 725.804C578.352 724.494 578.731 723.054 578.862 721.584L617.4 724.713C617.793 716.316 618.711 705.998 620.751 694.443C621.392 690.791 622.529 684.329 624.19 678.305C626.419 670.301 631.416 656.49 643.626 642.171C661.154 629.233 675.666 619.978 685.777 613.866C696.909 607.128 708.594 600.681 725.088 588.719C730.624 584.702 735.869 580.701 740.823 576.742C741.29 575.782 747.001 563.601 742.79 553.997C742.207 552.658 741.29 551.057 739.803 549.529C740.896 549.02 745.573 547.04 750.454 550.009C755.335 552.992 757.069 558.93 757.768 561.287C760.945 572.173 756.544 582.389 755.801 584.048Z" fill="#CDC6D0"/>
<path d="M654.161 623.907C649.644 654.438 645.112 684.955 640.596 715.486C640.392 716.898 640.567 718.324 641.106 719.605C649.6 739.935 651.48 811.548 647.415 827.134C646.861 829.273 647.269 831.645 648.522 833.289C660.586 849.181 654.539 864.141 654.539 864.141C648.23 901.977 584.18 872.96 569.348 865.683C566.725 864.403 566.055 860.168 566.055 860.168C557.677 842.865 563.957 822.157 566.23 809.787C568.969 794.885 569.406 772.954 558.857 742.641" fill="white"/>
<path d="M654.161 623.907C649.644 654.438 645.112 684.955 640.596 715.486C640.392 716.898 640.567 718.324 641.106 719.605C649.6 739.935 651.48 811.548 647.415 827.134C646.861 829.273 647.269 831.645 648.522 833.289C660.586 849.181 654.539 864.141 654.539 864.141C648.23 901.977 584.18 872.96 569.348 865.683C566.725 864.403 566.055 860.168 566.055 860.168C557.677 842.865 563.957 822.157 566.23 809.787C568.969 794.885 569.406 772.954 558.857 742.641" stroke="#371945" stroke-width="6" stroke-miterlimit="10"/>
<path d="M547.712 819.988C547.755 821.065 547.857 822.142 548.076 823.233C549.548 830.888 552.287 848.846 547.26 859.848C546.954 860.532 546.692 860.983 546.619 861.128C545.177 863.733 537.615 869.714 519.227 865.902C515.483 865.13 511.578 864.315 506.362 861.958C493.686 856.224 485.483 846.707 485.483 846.707C477.775 837.728 468.581 820.381 472.457 812.741C475.225 807.284 484.055 807.953 487.552 808.215C494.895 808.768 496.134 812.115 499.864 811.271C509.305 809.132 517.187 786.445 515.279 766.508C513.661 749.612 505.4 738.96 502.69 735.583C491.311 721.336 477.586 719.794 473.652 719.532C471.612 706.507 471.073 695.608 470.971 687.938C470.738 670.999 470.694 658.44 477.149 647.584C477.819 646.449 480.733 641.297 483.938 639.435C497.561 631.503 522.316 657.087 547.216 702.273C577.333 706.667 587.75 718.484 591.276 729.311C596.624 745.727 585.565 757.907 586.323 793.328C586.643 808.39 587.051 827.366 596.726 843.127C613.117 869.831 646.803 872.028 650.941 863.5C651.363 862.642 652.194 860.197 652.223 860.211C652.267 860.241 650.227 867.328 648.479 870.617C647.153 873.105 641.689 881.516 610.844 875.463C588.654 871.111 570.864 867.619 566.536 852.499C565.414 848.599 565.618 843.971 566.041 834.715C566.682 820.352 568.984 816.99 570.499 804.65C572.568 787.725 570.572 775.21 567.775 757.761C565.458 743.325 563.739 741.273 562.326 740.953C558.464 740.066 552.68 751.111 550.932 758.416C549.941 762.52 549.067 763.19 550.626 777.058C551.471 784.48 550.771 792.062 549.97 799.425C549.256 806.047 547.479 813.323 547.712 819.988Z" fill="#CDC6D0"/>
<path d="M519.475 549.427C519.475 549.427 405.347 572.318 395.279 663.228C396.008 667.448 398.732 680.473 407.853 687.065C417.164 693.788 427.421 689.961 431.486 688.448C454.507 679.862 452.292 654.205 480.019 633.366C491.136 625.013 492.841 628.127 502.311 619.905C518.834 605.571 526.731 584.761 530.84 568.782L519.475 549.427Z" fill="white" stroke="#371945" stroke-width="6" stroke-miterlimit="10"/>
<path d="M519.475 731.989C545.031 745.392 567.09 745.697 592.558 731.989C571.752 751.504 540.383 751.14 519.475 731.989Z" fill="#371945"/>
<path d="M543.071 866.804C547.804 858.555 534.753 842.201 513.92 830.277C493.088 818.353 472.363 815.374 467.63 823.623C462.896 831.872 475.948 848.226 496.78 860.15C517.613 872.074 538.338 875.053 543.071 866.804Z" fill="white" stroke="#371945" stroke-width="5" stroke-miterlimit="10"/>
<path d="M481.024 764.412C481.024 764.412 533.739 764.47 555.128 801.041" stroke="#371945" stroke-width="6" stroke-miterlimit="10"/>
<path d="M567.79 782.719C567.79 782.719 605.468 819.814 647.11 791.465" stroke="#371945" stroke-width="6" stroke-miterlimit="10"/>
<path d="M695.686 564.416C695.686 564.416 711.334 594.249 700.1 628.113" stroke="#371945" stroke-width="5" stroke-miterlimit="10"/>
<path d="M422.628 600.186C422.628 600.186 458.179 605.469 463.06 654.264L422.628 600.186Z" fill="white"/>
<path d="M422.628 600.186C422.628 600.186 458.179 605.469 463.06 654.264" stroke="#371945" stroke-width="6" stroke-miterlimit="10"/>
<path d="M423.618 647.148C423.618 647.148 422.452 663.781 432.564 666.502L424.215 691.416C424.215 691.416 431.165 698.736 438.582 679.672C442.428 674.273 446.275 668.874 450.107 663.49" fill="white"/>
<path d="M423.618 647.147C424.317 653.682 425.687 662.835 433.001 664.843L434.677 665.251C433.934 667.943 433.132 670.679 432.316 673.328C430.408 679.614 428.412 685.872 426.255 692.071L425.774 689.903C425.803 689.932 426.109 690.179 426.328 690.281C431.238 692.362 435.478 682.306 437.241 678.785C441.379 673.546 445.604 668.394 450.106 663.446C447.236 668.743 442.574 676.442 440.053 680.211C437.838 686.163 434.152 695.913 426.124 694.705C424.39 694.371 423.006 693.308 421.768 691.998L422.176 690.703C424.9 682.379 427.814 674.113 430.947 665.935L432.127 668.132C423.574 665.309 422.38 654.773 423.618 647.147Z" fill="#371945"/>
<path d="M481.446 846.125L495.346 822.433L511.242 834.279L497.342 857.97L514.418 868.084L529.542 843.593" fill="white"/>
<path d="M481.446 846.125L495.346 822.433L511.242 834.279L497.342 857.97L514.418 868.084L529.542 843.593" stroke="#371945" stroke-width="4" stroke-miterlimit="10"/>
<path d="M499.069 545.144C530.904 568.695 570.576 574.09 605.681 563.155C629.068 555.919 650.435 541.43 666.112 520.28C705.384 467.319 694.243 392.632 641.234 353.423C619.835 337.589 594.893 329.968 570.144 330C533.613 330.016 497.579 346.715 474.16 378.287C434.92 431.232 446.06 505.919 499.069 545.144Z" fill="white" stroke="#371945" stroke-width="6" stroke-miterlimit="10"/>
<path d="M462.458 479.823C477.798 533.568 539.158 571.528 565.719 556.463C590.917 542.166 583.015 481.183 573.205 448.443C563.635 416.535 537.139 360.964 507.901 362.565C477.509 364.23 447.502 427.422 462.458 479.823Z" fill="#1B1931" stroke="#371945" stroke-width="6" stroke-miterlimit="10"/>
<path d="M494 356.219C553.106 333.688 633.289 488.398 569.601 564" stroke="#371A45" stroke-width="5"/>
<path d="M494 356.219C553.106 333.688 633.289 488.398 569.601 564" stroke="#371A45" stroke-width="5"/>
<path d="M473.133 487.886C491.878 515.819 525.095 526.371 547.326 511.453C569.556 496.536 572.382 461.799 553.637 433.866C534.893 405.932 501.676 395.381 479.445 410.298C457.215 425.215 454.389 459.952 473.133 487.886Z" fill="#371A45" stroke="#371A45" stroke-width="3" stroke-miterlimit="10"/>
<path d="M560.462 473.867C573.413 483.441 590.581 483.265 603.18 474.667C606.466 472.426 609.431 469.608 611.948 466.23C621.389 453.502 621.357 436.659 613.15 424.123C614.144 433.041 611.932 442.391 606.145 450.188C603.629 453.582 600.663 456.384 597.377 458.625C584.794 467.223 567.611 467.399 554.659 457.825C551.084 455.183 548.135 452.029 545.843 448.523C546.933 458.257 551.934 467.559 560.462 473.867Z" fill="white" stroke="#371945" stroke-width="6" stroke-miterlimit="10"/>
<path d="M555.717 458.241C568.669 467.815 585.836 467.639 598.436 459.042C601.722 456.8 604.703 453.982 607.204 450.604C612.99 442.807 615.202 433.457 614.208 424.54L614.176 424.524C613.054 414.774 608.053 405.488 599.526 399.18C593.162 394.473 585.724 392.103 578.367 391.975C566.858 391.751 555.429 396.922 548.055 406.865C538.614 419.593 538.614 436.419 546.869 448.939L546.901 448.955C549.193 452.445 552.159 455.599 555.717 458.241Z" fill="white" stroke="#371945" stroke-width="6" stroke-miterlimit="10"/>
<path d="M563.588 456.56C573.606 461.603 586.718 461.555 595.743 454.799C598.34 452.846 600.744 450.46 602.828 447.642C610.666 437.076 611.596 423.803 606.098 414.389C606.354 421.37 604.142 428.863 599.349 435.331C597.266 438.148 594.861 440.534 592.264 442.487C582.294 449.964 569.326 451.068 560.109 444.248C558.667 443.175 558.106 440.726 555.926 440.246C553.617 439.733 551.293 441.366 549.658 442.839C551.421 446.057 555.589 452.541 563.588 456.56Z" fill="#CDC6D0"/>
<path d="M570.096 562.163C604.767 562.067 639.038 546.088 661.351 516.005C698.748 465.59 688.377 394.601 638.205 357.489C608.069 335.187 570.416 330.176 537.043 340.679C560.51 340.583 584.169 347.755 604.415 362.741C654.587 399.852 664.942 470.809 627.545 521.241C612.606 541.398 592.296 555.214 570.096 562.163Z" fill="#CDC6D0"/>
<path d="M483.44 450.604C483.873 436.787 486.983 414.597 502.596 396.138C504.567 393.8 506.603 391.687 508.687 389.75" stroke="#CDC6D0" stroke-width="5" stroke-miterlimit="10" stroke-linecap="round"/>
<path d="M623.201 622.232V709.423C622.864 711.969 621.598 717.653 615.587 723C605.857 731.646 591.463 732.462 588.962 732.574C556.551 731.261 524.123 729.932 491.712 728.62C477.365 728.62 465.712 720.038 465.712 709.423V696.984C470.409 701.995 478.263 705.261 487.095 705.261H578.495C592.841 705.261 604.495 696.679 604.495 686.065V603.821C615.298 606.142 623.201 613.507 623.201 622.232Z" fill="#CDC6D0"/>
<path d="M609.271 581.647V696.023C609.271 709.936 597.458 721.207 582.935 721.207H522.36C507.837 721.207 496.056 709.936 496.056 696.023V581.647C496.056 567.734 507.837 556.463 522.36 556.463H582.935C597.458 556.463 609.271 567.734 609.271 581.647Z" fill="white" stroke="#371945" stroke-width="6" stroke-miterlimit="10"/>
<path d="M577.325 581.647V696.023C577.325 709.936 565.511 721.207 550.989 721.207H490.414C481.453 721.207 473.519 716.932 468.758 710.336C465.825 706.27 464.109 701.338 464.109 696.023V581.647C464.109 567.734 475.891 556.463 490.414 556.463H550.989C565.511 556.463 577.325 567.734 577.325 581.647Z" fill="white" stroke="#371945" stroke-width="6" stroke-miterlimit="10"/>
<path d="M548.52 612.915C540.73 615.892 531.449 613.203 527.794 606.975C525.87 603.709 525.87 600.155 527.393 597.049C527.489 597.321 527.634 597.577 527.794 597.849C531.449 604.109 540.73 606.767 548.52 603.821C552.239 602.396 554.948 599.946 556.342 597.081C559.308 603.148 555.942 610.113 548.52 612.915Z" fill="#CDC6D0"/>
<path d="M556.07 596.312C554.691 599.658 552.046 602.524 548.392 604.189C540.746 607.631 531.625 604.525 528.034 597.225C527.874 596.904 527.746 596.6 527.65 596.28C524.716 589.22 528.002 581.071 535.296 577.756C542.942 574.314 552.014 577.42 555.653 584.721C557.545 588.499 557.545 592.678 556.07 596.312Z" fill="#3A266F" stroke="#371A45" stroke-width="4" stroke-miterlimit="10"/>
<path d="M581.717 670.167C600.76 680.781 617.254 684.736 628.234 686.385C652.679 690.051 666.047 689.235 669.734 680.477C671.93 675.242 669.927 668.438 667.586 663.106C633.78 664.867 626.743 664.179 626.743 664.179C617.318 663.25 603.388 660.417 586.526 651.195C585.804 651.259 578.992 652.027 577.277 657.102C575.626 661.889 577.501 667.813 581.717 670.167Z" fill="white" stroke="#371945" stroke-width="6" stroke-miterlimit="10"/>
<path d="M473.614 668.822H516.942L526.111 688.674H568.076" stroke="#CDC6D0" stroke-width="5" stroke-miterlimit="10"/>
<path d="M462.603 661.281H511.941L522.376 681.15H570.16" stroke="#371945" stroke-width="5" stroke-miterlimit="10"/>
</svg>
